{"glyphs":{"0":{"ha":872,"x_min":60,"x_max":813,"o":"m 436 983 q 715 849 618 983 q 813 485 813 714 q 715 121 813 256 q 436 -14 618 -14 q 156 121 253 -14 q 60 485 60 256 q 156 849 60 714 q 436 983 253 983 m 251 204 q 283 153 251 204 q 436 103 315 103 q 622 204 557 103 q 686 485 686 306 q 622 764 686 663 q 436 865 557 865 q 251 764 315 865 q 186 485 186 663 q 251 204 186 306 z "},"1":{"ha":872,"x_min":178,"x_max":735,"o":"m 675 118 q 717 101 700 118 q 735 58 735 83 q 717 17 735 33 q 675 0 700 0 l 246 0 q 204 17 221 0 q 188 58 188 33 q 204 101 188 83 q 246 118 221 118 l 411 118 l 411 822 l 269 753 q 238 744 250 744 q 194 761 211 744 q 178 804 178 778 q 214 861 178 843 l 403 960 q 442 969 422 969 l 471 969 q 517 950 497 969 q 538 903 538 931 l 538 118 l 675 118 z "},"2":{"ha":872,"x_min":90,"x_max":768,"o":"m 700 118 q 742 101 725 118 q 760 58 760 83 q 742 17 760 33 q 700 0 725 0 l 164 0 q 111 20 132 0 q 90 72 90 40 q 131 203 90 140 q 234 313 172 267 q 368 407 296 358 q 502 496 440 456 q 605 588 564 536 q 646 692 646 639 q 426 864 646 864 q 189 814 301 864 q 163 807 175 807 q 125 822 140 807 q 110 861 110 838 q 140 913 110 896 q 449 983 282 983 q 676 905 585 983 q 768 701 768 826 q 732 570 768 633 q 642 459 696 507 q 520 363 588 411 q 393 278 453 315 q 283 198 333 240 q 217 118 233 156 l 700 118 z "},"3":{"ha":872,"x_min":82,"x_max":768,"o":"m 565 501 q 631 478 600 493 q 694 436 661 464 q 748 361 728 408 q 768 254 768 314 q 667 56 768 126 q 408 -14 567 -14 q 118 42 254 -14 q 82 94 82 56 q 98 135 82 117 q 138 153 114 153 q 164 147 150 153 q 385 107 264 107 q 476 114 433 107 q 558 138 519 121 q 619 186 597 154 q 642 261 642 218 q 335 436 642 436 l 313 436 q 272 453 289 436 q 254 494 254 471 q 272 535 254 518 q 313 553 289 553 l 321 553 q 607 721 607 553 q 551 826 607 788 q 388 865 496 865 q 172 819 271 865 q 147 814 158 814 q 111 828 126 814 q 96 865 96 843 q 124 913 96 897 q 399 983 257 983 q 646 918 558 983 q 733 733 733 853 q 565 501 733 564 z "},"4":{"ha":872,"x_min":35,"x_max":828,"o":"m 771 357 q 811 340 794 357 q 828 300 828 324 q 811 260 828 276 q 771 244 794 244 l 665 244 l 665 56 q 647 11 665 29 q 601 -7 628 -7 q 557 11 575 -7 q 539 56 539 29 l 539 244 l 115 244 q 58 267 82 244 q 35 324 35 290 l 35 336 q 51 386 35 365 l 488 943 q 557 976 514 976 l 585 976 q 643 953 621 976 q 665 896 665 931 l 665 357 l 771 357 m 169 357 l 539 357 l 539 833 l 169 357 z "},"5":{"ha":872,"x_min":89,"x_max":793,"o":"m 469 614 q 708 527 622 614 q 793 300 793 440 q 697 73 793 160 q 413 -14 601 -14 q 117 67 243 -14 q 89 117 89 86 q 104 159 89 142 q 144 176 119 176 q 174 169 160 176 q 396 111 283 111 q 597 156 528 111 q 667 307 667 200 q 609 443 667 393 q 451 493 551 493 q 238 433 336 493 q 189 417 207 417 q 124 439 150 417 q 97 497 97 461 q 100 531 97 514 l 163 900 q 187 951 167 932 q 236 969 207 969 l 682 969 q 724 952 707 969 q 742 910 742 935 q 724 868 742 885 q 682 851 707 851 l 279 851 l 235 557 q 469 614 340 614 z "},"6":{"ha":872,"x_min":82,"x_max":806,"o":"m 488 628 q 718 539 631 628 q 806 301 806 450 q 712 76 806 167 q 463 -14 618 -14 q 82 483 82 -14 q 103 654 82 571 q 168 814 124 738 q 294 937 213 890 q 485 983 376 983 q 731 924 617 983 q 760 874 760 908 q 744 834 760 851 q 703 817 728 817 q 679 821 689 817 q 494 861 593 861 q 374 835 426 861 q 290 772 321 810 q 240 684 260 735 q 213 592 219 633 q 203 506 206 550 q 488 628 299 628 m 464 104 q 619 163 560 104 q 679 304 679 221 q 626 456 679 399 q 472 513 574 513 q 210 360 292 513 q 464 104 247 104 z "},"7":{"ha":872,"x_min":83,"x_max":788,"o":"m 788 896 q 774 835 788 865 l 379 28 q 319 -7 361 -7 q 274 10 292 -7 q 257 56 257 28 q 265 89 257 72 l 647 849 l 143 849 q 101 866 118 849 q 83 908 83 883 q 101 951 83 933 q 143 969 118 969 l 710 969 q 765 949 743 969 q 788 896 788 928 z "},"8":{"ha":872,"x_min":65,"x_max":807,"o":"m 761 731 q 716 597 761 650 q 600 519 671 543 q 807 257 807 450 q 787 162 807 207 q 726 76 767 117 q 610 10 685 35 q 436 -14 535 -14 q 263 10 338 -14 q 147 76 188 35 q 85 162 106 117 q 65 257 65 207 q 272 519 65 450 q 156 597 201 543 q 111 731 111 650 q 191 906 111 828 q 436 983 271 983 q 681 906 601 983 q 761 731 761 828 m 251 153 q 281 125 251 153 q 436 97 311 97 q 621 153 561 97 q 681 271 681 210 q 610 409 681 360 q 436 458 539 458 q 263 409 333 458 q 192 271 192 360 q 251 153 192 210 m 238 722 q 285 618 238 664 q 436 572 333 572 q 587 618 539 572 q 635 722 635 664 q 584 830 635 788 q 436 872 533 872 q 288 830 339 872 q 238 722 238 788 z "},"9":{"ha":872,"x_min":67,"x_max":790,"o":"m 385 342 q 154 431 242 342 q 67 668 67 519 q 160 893 67 803 q 410 983 254 983 q 790 486 790 983 q 769 315 790 399 q 704 156 749 232 q 578 33 660 79 q 388 -14 496 -14 q 142 46 256 -14 q 113 96 113 61 q 128 135 113 118 q 169 153 144 153 q 193 149 183 153 q 378 108 279 108 q 499 134 446 108 q 582 197 551 160 q 633 285 613 235 q 660 378 653 336 q 669 464 667 419 q 385 342 574 342 m 408 865 q 253 807 313 865 q 193 665 193 749 q 246 514 193 571 q 400 457 299 457 q 663 610 581 457 q 408 865 625 865 z "}," ":{"ha":361,"x_min":0,"x_max":0,"o":""},"!":{"ha":390,"x_min":114,"x_max":279,"o":"m 196 268 q 149 308 151 268 l 124 767 l 124 904 q 144 956 124 935 q 196 976 165 976 q 247 956 226 976 q 267 904 267 935 l 267 767 l 242 308 q 196 268 239 268 m 196 160 q 255 135 231 160 q 279 78 279 111 q 255 19 279 43 q 196 -6 231 -6 q 138 19 163 -6 q 114 78 114 43 q 138 135 114 111 q 196 160 163 160 z "},"\"":{"ha":571,"x_min":83,"x_max":488,"o":"m 83 968 q 106 1017 85 997 q 154 1038 126 1038 q 203 1017 182 1038 q 225 968 224 997 q 194 718 229 888 q 154 683 186 683 q 114 718 122 683 q 83 968 79 888 m 346 968 q 368 1017 347 997 q 417 1038 389 1038 q 465 1017 444 1038 q 488 968 486 997 q 457 718 492 888 q 417 683 449 683 q 376 718 385 683 q 346 968 342 888 z "},"#":{"ha":850,"x_min":50,"x_max":799,"o":"m 750 658 q 784 644 769 658 q 799 610 799 629 q 784 576 799 590 q 750 561 769 561 l 628 561 l 594 350 l 596 350 l 701 350 q 735 335 721 350 q 750 301 750 321 q 735 267 750 282 q 701 253 721 253 l 579 253 l 544 33 q 528 5 542 17 q 496 -7 514 -7 q 462 7 476 -7 q 447 42 447 21 q 481 253 447 47 l 304 253 l 269 33 q 253 5 267 17 q 221 -7 239 -7 q 187 7 201 -7 q 172 42 172 21 q 206 253 172 47 l 99 253 q 65 267 79 253 q 50 301 50 282 q 65 335 50 321 q 99 350 79 350 l 221 350 l 254 561 l 147 561 q 113 576 128 561 q 99 610 99 590 q 113 644 99 629 q 147 658 128 658 l 269 658 l 304 878 q 320 906 307 894 q 353 917 333 917 q 388 903 375 917 q 401 868 401 889 q 368 658 401 858 l 544 658 l 579 878 q 595 906 582 894 q 628 917 608 917 q 663 903 650 917 q 676 868 676 889 q 643 658 676 858 l 750 658 m 496 350 l 529 561 l 353 561 l 319 350 l 496 350 z "},"$":{"ha":850,"x_min":65,"x_max":790,"o":"m 464 538 q 584 504 539 519 q 683 458 629 489 q 764 376 738 426 q 790 257 790 326 q 701 69 790 144 q 464 -14 613 -6 l 464 -122 q 455 -144 464 -136 q 432 -153 446 -153 q 401 -122 401 -153 l 401 -14 q 104 53 242 -7 q 65 107 65 68 q 81 147 65 131 q 122 164 97 164 q 149 158 136 164 q 401 104 261 108 l 401 422 q 306 449 342 438 q 220 485 269 461 q 143 535 171 508 q 95 603 115 561 q 75 699 75 646 q 161 894 75 814 q 401 982 247 974 l 401 1090 q 410 1113 401 1104 q 432 1122 418 1122 q 455 1113 446 1122 q 464 1090 464 1104 l 464 983 q 711 938 597 979 q 750 882 750 924 q 735 842 750 860 q 694 825 719 825 q 672 831 686 825 q 464 868 571 867 l 464 538 m 200 708 q 251 611 200 644 q 401 553 303 578 l 401 865 q 256 816 311 857 q 200 708 200 775 m 464 106 q 665 265 665 119 q 615 350 665 319 q 464 407 564 381 l 464 106 z "},"%":{"ha":1131,"x_min":60,"x_max":1071,"o":"m 118 923 q 147 958 118 923 q 283 993 176 993 q 449 923 390 993 q 507 744 507 853 q 449 566 507 636 q 283 496 390 496 q 118 566 176 496 q 60 744 60 636 q 118 923 60 853 m 190 631 q 207 608 190 631 q 283 586 224 586 q 376 631 343 586 q 410 744 410 675 q 376 858 410 814 q 283 903 343 903 q 190 858 224 903 q 157 744 157 814 q 190 631 157 675 m 682 402 q 711 437 682 402 q 847 472 740 472 q 1013 402 954 472 q 1071 224 1071 332 q 1013 45 1071 115 q 847 -25 954 -25 q 682 45 740 -25 q 624 224 624 115 q 682 402 624 332 m 754 110 q 771 88 754 110 q 847 65 788 65 q 940 110 907 65 q 974 224 974 154 q 940 338 974 293 q 847 382 907 382 q 754 338 788 382 q 721 224 721 293 q 754 110 721 154 m 896 940 q 886 910 896 925 l 325 11 q 283 -14 310 -14 q 251 -1 265 -14 q 238 32 238 13 q 244 56 238 44 l 810 960 q 849 982 824 982 q 896 940 896 982 z "},"&":{"ha":1017,"x_min":99,"x_max":917,"o":"m 801 179 l 894 90 q 917 46 917 71 q 901 6 917 22 q 860 -11 886 -11 q 817 6 835 -11 l 724 94 q 439 -14 596 -14 q 183 71 268 -14 q 99 272 99 156 q 148 434 99 367 q 256 539 197 501 q 171 740 171 640 q 242 913 171 842 q 431 983 313 983 q 615 922 524 983 q 640 881 640 908 q 626 847 640 861 q 592 832 613 832 q 567 839 581 832 q 436 875 500 875 q 327 837 367 875 q 288 747 288 799 q 315 650 288 689 q 426 532 342 611 l 717 258 q 763 343 736 286 q 817 378 778 378 q 858 362 842 378 q 875 321 875 346 q 868 293 875 307 q 801 179 840 233 m 642 171 l 332 461 q 218 268 218 385 q 278 142 218 192 q 428 93 339 93 q 642 171 546 93 z "},"'":{"ha":331,"x_min":88,"x_max":265,"o":"m 188 1032 q 242 1009 219 1032 q 265 954 265 986 l 265 946 l 265 872 q 151 669 265 739 q 128 663 142 663 q 99 675 111 663 q 88 704 88 688 q 108 739 88 726 q 161 788 143 760 q 179 868 179 815 l 174 868 q 119 891 142 868 q 96 946 96 914 l 96 954 q 119 1009 96 986 q 174 1032 142 1032 l 188 1032 z "},"(":{"ha":433,"x_min":71,"x_max":368,"o":"m 368 -160 q 351 -199 368 -183 q 313 -214 335 -214 q 267 -189 288 -214 q 120 87 169 -74 q 71 426 71 247 q 120 766 71 606 q 267 1042 169 926 q 313 1067 288 1067 q 351 1051 335 1067 q 368 1013 368 1036 q 360 982 368 997 q 197 426 197 711 q 360 -129 197 142 q 368 -160 368 -143 z "},")":{"ha":433,"x_min":67,"x_max":364,"o":"m 67 -160 q 75 -129 67 -144 q 238 426 238 142 q 75 982 238 711 q 67 1013 67 997 q 83 1051 67 1036 q 122 1067 100 1067 q 168 1042 147 1067 q 315 766 265 926 q 364 426 364 606 q 315 87 364 247 q 168 -189 265 -74 q 122 -214 147 -214 q 83 -199 100 -214 q 67 -160 67 -183 z "},"*":{"ha":579,"x_min":92,"x_max":485,"o":"m 467 700 q 485 675 481 692 q 481 644 489 658 q 456 625 472 631 q 425 628 440 619 q 308 721 419 631 q 331 574 331 579 q 318 545 331 557 q 289 533 306 533 q 260 545 272 533 q 247 574 247 557 q 269 721 247 579 q 153 628 158 631 q 121 625 136 619 q 97 644 106 631 q 92 674 89 657 q 111 700 96 692 q 250 754 117 703 q 111 808 117 806 q 92 835 96 817 q 97 865 89 853 q 121 884 106 879 q 153 881 136 889 q 269 788 158 878 q 247 935 247 929 q 260 963 247 951 q 289 975 272 975 q 318 963 306 975 q 331 935 331 951 q 308 788 331 929 q 425 881 419 878 q 456 884 440 889 q 481 865 472 879 q 485 835 489 851 q 467 808 481 818 q 328 754 461 806 q 467 700 461 703 z "},"+":{"ha":781,"x_min":56,"x_max":725,"o":"m 671 533 q 710 518 694 533 q 725 479 725 503 q 710 442 725 457 q 671 426 694 426 l 444 426 l 444 199 q 429 160 444 175 q 390 144 414 144 q 351 160 367 144 q 336 199 336 175 l 336 426 l 108 426 q 71 441 86 426 q 56 479 56 456 q 71 518 56 503 q 108 533 86 533 l 336 533 l 336 761 q 351 799 336 783 q 390 815 367 815 q 429 799 414 815 q 444 761 444 783 l 444 533 l 671 533 z "},",":{"ha":361,"x_min":88,"x_max":265,"o":"m 188 160 q 242 137 219 160 q 265 82 265 114 l 265 74 l 265 0 q 151 -203 265 -133 q 128 -210 142 -210 q 99 -197 111 -210 q 88 -168 88 -185 q 108 -133 88 -146 q 161 -85 143 -112 q 179 -4 179 -57 l 174 -4 q 119 19 142 -4 q 96 74 96 42 l 96 82 q 119 137 96 114 q 174 160 142 160 l 188 160 z "},"-":{"ha":567,"x_min":96,"x_max":471,"o":"m 414 446 q 454 429 438 446 q 471 389 471 413 q 454 349 471 365 q 414 333 438 333 l 151 333 q 112 349 128 333 q 96 389 96 365 q 112 429 96 413 q 151 446 128 446 l 414 446 z "},".":{"ha":361,"x_min":96,"x_max":265,"o":"m 188 160 q 242 137 219 160 q 265 82 265 114 l 265 74 q 242 19 265 42 q 188 -4 219 -4 l 174 -4 q 119 19 142 -4 q 96 74 96 42 l 96 82 q 119 137 96 114 q 174 160 142 160 l 188 160 z "},"/":{"ha":615,"x_min":67,"x_max":550,"o":"m 493 1061 q 534 1044 518 1061 q 550 1004 550 1028 q 546 983 550 996 l 178 -93 q 124 -132 165 -132 q 83 -115 99 -132 q 67 -75 67 -99 q 71 -54 67 -67 l 439 1022 q 493 1061 451 1061 z "},":":{"ha":361,"x_min":96,"x_max":265,"o":"m 188 160 q 242 137 219 160 q 265 82 265 114 l 265 74 q 242 19 265 42 q 188 -4 219 -4 l 174 -4 q 119 19 142 -4 q 96 74 96 42 l 96 82 q 119 137 96 114 q 174 160 142 160 l 188 160 m 188 713 q 242 690 219 713 q 265 635 265 667 l 265 626 q 242 572 265 594 q 188 549 219 549 l 174 549 q 119 572 142 549 q 96 626 96 594 l 96 635 q 119 690 96 667 q 174 713 142 713 l 188 713 z "},";":{"ha":361,"x_min":88,"x_max":265,"o":"m 188 160 q 242 137 219 160 q 265 82 265 114 l 265 74 l 265 0 q 151 -203 265 -133 q 128 -210 142 -210 q 99 -197 111 -210 q 88 -168 88 -185 q 108 -133 88 -146 q 161 -85 143 -112 q 179 -4 179 -57 l 174 -4 q 119 19 142 -4 q 96 74 96 42 l 96 82 q 119 137 96 114 q 174 160 142 160 l 188 160 m 188 713 q 242 690 219 713 q 265 635 265 667 l 265 626 q 242 572 265 594 q 188 549 219 549 l 174 549 q 119 572 142 549 q 96 626 96 594 l 96 635 q 119 690 96 667 q 174 713 142 713 l 188 713 z "},"<":{"ha":806,"x_min":49,"x_max":731,"o":"m 675 81 q 653 85 664 81 l 99 333 q 49 406 49 356 l 49 417 q 99 489 49 467 l 653 738 q 675 742 664 742 q 715 726 699 742 q 731 686 731 710 q 693 633 731 650 l 193 411 l 693 189 q 731 136 731 172 q 715 97 731 113 q 675 81 699 81 z "},"=":{"ha":989,"x_min":101,"x_max":888,"o":"m 156 561 q 117 576 133 561 q 101 615 101 592 q 117 654 101 639 q 156 669 133 669 l 833 669 q 872 654 856 669 q 888 615 888 639 q 872 576 888 592 q 833 561 856 561 l 156 561 m 833 358 q 872 343 856 358 q 888 304 888 328 q 872 265 888 281 q 833 250 856 250 l 156 250 q 117 265 133 250 q 101 304 101 281 q 117 343 101 328 q 156 358 133 358 l 833 358 z "},">":{"ha":806,"x_min":75,"x_max":757,"o":"m 131 81 q 91 97 107 81 q 75 136 75 113 q 113 189 75 172 l 613 411 l 113 633 q 75 686 75 650 q 91 726 75 710 q 131 742 107 742 q 153 738 142 742 l 707 489 q 757 417 757 467 l 757 406 q 707 333 757 356 l 153 85 q 131 81 142 81 z "},"?":{"ha":690,"x_min":36,"x_max":628,"o":"m 315 983 q 542 913 457 983 q 628 721 628 842 q 601 611 628 660 q 535 531 574 563 q 460 470 497 500 q 395 401 422 440 q 368 313 368 361 q 350 274 368 290 q 307 258 332 258 q 263 274 281 258 q 246 313 246 290 q 272 431 246 378 q 337 517 299 483 q 413 581 375 551 q 476 643 450 610 q 503 714 503 676 q 304 865 503 865 q 126 819 199 865 q 92 808 110 808 q 53 825 69 808 q 36 864 36 842 q 71 917 36 896 q 315 983 178 983 m 304 160 q 363 135 339 160 q 388 78 388 111 q 363 19 388 43 q 304 -6 339 -6 q 247 19 271 -6 q 222 78 222 43 q 247 135 222 111 q 304 160 271 160 z "},"@":{"ha":1247,"x_min":68,"x_max":1186,"o":"m 657 956 q 1031 819 876 954 q 1186 475 1186 685 q 1162 313 1186 388 q 1077 185 1138 239 q 928 132 1017 132 q 819 163 858 132 q 772 235 781 193 q 543 131 686 131 q 369 199 432 131 q 307 375 307 267 q 406 621 307 529 q 636 713 504 713 q 814 642 740 713 l 818 665 q 835 696 821 683 q 869 708 850 708 q 905 694 890 708 q 919 657 919 679 q 918 642 919 650 l 872 378 q 863 288 863 326 q 880 223 863 249 q 932 197 897 197 q 1065 272 1018 197 q 1111 475 1111 347 q 1042 698 1111 603 q 872 838 974 793 q 657 882 771 882 q 294 728 447 882 q 140 364 140 575 q 187 170 140 261 q 330 18 233 79 q 556 -43 426 -43 q 670 -33 615 -43 q 759 -12 725 -24 q 846 21 793 0 q 861 24 854 24 q 886 14 876 24 q 896 -10 896 4 q 876 -42 896 -32 q 556 -115 729 -115 q 204 26 340 -115 q 68 364 68 168 q 148 657 68 521 q 364 874 228 793 q 657 956 500 956 m 776 421 l 799 550 q 642 614 738 614 q 481 554 549 614 q 414 389 414 494 q 458 267 414 308 q 574 226 503 226 q 776 421 743 226 z "},"A":{"ha":968,"x_min":36,"x_max":933,"o":"m 926 83 q 933 56 933 67 q 916 11 933 29 q 871 -7 899 -7 q 811 32 828 -7 l 721 249 l 249 249 l 158 32 q 99 -7 142 -7 q 53 11 71 -7 q 36 56 36 29 q 43 83 36 67 l 397 919 q 478 976 422 976 l 492 976 q 572 919 547 976 l 926 83 m 297 364 l 672 364 l 485 815 l 297 364 z "},"B":{"ha":963,"x_min":135,"x_max":890,"o":"m 700 504 q 837 419 783 478 q 890 272 890 361 q 533 0 890 0 l 197 0 q 153 18 171 0 q 135 63 135 36 l 135 906 q 153 951 135 932 q 197 969 171 969 l 525 969 q 755 901 674 969 q 836 718 836 833 q 700 504 836 565 m 715 708 q 662 813 715 774 q 515 851 608 851 l 261 851 l 261 550 l 492 550 q 665 592 615 550 q 715 708 715 633 m 521 118 q 712 160 656 118 q 768 278 768 201 q 522 436 768 436 l 261 436 l 261 118 l 521 118 z "},"C":{"ha":969,"x_min":78,"x_max":911,"o":"m 856 178 q 897 161 881 178 q 911 122 913 144 q 881 72 910 88 q 564 -14 728 -14 q 215 122 351 -14 q 78 485 78 257 q 215 848 78 713 q 564 983 351 983 q 881 897 728 983 q 911 847 910 882 q 897 808 913 825 q 856 792 881 792 q 831 797 842 792 q 576 863 707 863 q 301 757 399 863 q 204 485 204 651 q 301 213 204 318 q 576 107 399 107 q 831 172 707 107 q 856 178 842 178 z "},"D":{"ha":1042,"x_min":135,"x_max":967,"o":"m 476 969 q 692 927 596 969 q 847 815 789 885 q 936 660 906 744 q 967 485 967 575 q 948 345 967 414 q 890 214 929 276 q 793 103 850 151 q 654 28 736 56 q 476 0 572 0 l 197 0 q 153 18 171 0 q 135 63 135 36 l 135 906 q 153 951 135 932 q 197 969 171 969 l 476 969 m 461 118 q 738 219 633 118 q 842 485 842 321 q 738 750 842 649 q 461 851 633 851 l 261 851 l 261 118 l 461 118 z "},"E":{"ha":886,"x_min":135,"x_max":814,"o":"m 754 118 q 797 101 779 118 q 814 58 814 83 q 797 17 814 33 q 754 0 779 0 l 197 0 q 153 18 171 0 q 135 63 135 36 l 135 906 q 153 951 135 932 q 197 969 171 969 l 754 969 q 797 952 779 969 q 814 910 814 935 q 797 868 814 885 q 754 851 779 851 l 261 851 l 261 544 l 704 544 q 747 527 729 544 q 764 485 764 510 q 747 443 764 460 q 704 426 729 426 l 261 426 l 261 118 l 754 118 z "},"F":{"ha":847,"x_min":135,"x_max":797,"o":"m 738 851 l 261 851 l 261 544 l 689 544 q 731 527 714 544 q 749 485 749 510 q 731 443 749 460 q 689 426 714 426 l 261 426 l 261 56 q 242 11 261 29 q 197 -7 224 -7 q 153 11 171 -7 q 135 56 135 29 l 135 906 q 153 951 135 932 q 197 969 171 969 l 738 969 q 780 952 763 969 q 797 910 797 935 q 780 868 797 885 q 738 851 763 851 z "},"G":{"ha":1033,"x_min":76,"x_max":935,"o":"m 868 532 q 915 513 896 532 q 935 465 935 493 l 935 150 q 882 64 935 89 q 564 -14 726 -14 q 211 125 346 -14 q 76 483 76 264 q 215 844 76 706 q 560 983 354 983 q 906 883 749 983 q 933 833 933 868 q 917 793 933 810 q 875 776 901 776 q 846 783 860 776 q 574 861 715 861 q 307 761 411 861 q 203 483 203 661 q 304 212 203 318 q 581 106 406 106 q 824 167 711 106 l 824 418 l 594 418 q 554 435 571 418 q 538 475 538 451 q 554 515 538 499 q 594 532 571 532 l 868 532 z "},"H":{"ha":1049,"x_min":135,"x_max":914,"o":"m 806 958 q 815 967 806 958 q 850 976 824 976 q 895 958 876 976 q 914 913 914 939 l 914 56 q 895 11 914 29 q 850 -7 876 -7 q 806 11 824 -7 q 788 56 788 29 l 788 425 l 261 425 l 261 56 q 242 11 261 29 q 197 -7 224 -7 q 153 11 171 -7 q 135 56 135 29 l 135 913 q 153 958 135 939 q 197 976 171 976 q 242 958 224 976 q 261 913 261 939 l 261 543 l 788 543 l 788 913 q 806 958 788 939 z "},"I":{"ha":396,"x_min":135,"x_max":261,"o":"m 153 958 q 162 967 153 958 q 197 976 171 976 q 242 958 224 976 q 261 913 261 939 l 261 56 q 242 11 261 29 q 197 -7 224 -7 q 153 11 171 -7 q 135 56 135 29 l 135 913 q 153 958 135 939 z "},"J":{"ha":647,"x_min":17,"x_max":518,"o":"m 410 958 q 419 967 410 958 q 454 976 428 976 q 499 958 481 976 q 518 913 518 939 l 518 319 q 437 62 518 138 q 232 -14 356 -14 q 47 33 131 -14 q 17 85 17 51 q 31 124 17 107 q 69 142 46 142 q 94 136 83 142 q 224 106 158 106 q 345 149 299 106 q 392 311 392 192 l 392 913 q 410 958 392 939 z "},"K":{"ha":931,"x_min":135,"x_max":889,"o":"m 874 94 q 889 54 889 75 q 872 11 890 29 q 828 -7 854 -7 q 778 18 796 -7 l 419 475 l 261 315 l 261 56 q 242 11 261 29 q 197 -7 224 -7 q 153 11 171 -7 q 135 56 135 29 l 135 913 q 153 958 135 939 q 197 976 171 976 q 242 958 224 976 q 261 913 261 939 l 261 471 l 736 954 q 783 976 756 976 q 826 959 808 976 q 842 917 843 942 q 826 878 839 890 l 506 558 l 874 94 z "},"L":{"ha":800,"x_min":135,"x_max":779,"o":"m 715 126 q 760 108 742 126 q 779 63 779 89 q 760 18 779 36 q 715 0 742 0 l 222 0 q 160 26 186 0 q 135 88 135 51 l 135 913 q 153 958 135 939 q 197 976 171 976 q 242 958 224 976 q 261 913 261 939 l 261 126 l 715 126 z "},"M":{"ha":1342,"x_min":135,"x_max":1207,"o":"m 1117 976 q 1181 949 1154 976 q 1207 885 1207 922 l 1207 56 q 1189 11 1207 29 q 1144 -7 1171 -7 q 1099 11 1118 -7 q 1081 56 1081 29 l 1081 844 l 760 51 q 671 -7 735 -7 q 582 51 607 -7 l 261 844 l 261 56 q 242 11 261 29 q 197 -7 224 -7 q 153 11 171 -7 q 135 56 135 29 l 135 885 q 161 949 135 922 q 225 976 188 976 l 271 976 q 356 918 331 976 l 671 132 l 986 918 q 1071 976 1011 976 l 1117 976 z "},"N":{"ha":1115,"x_min":135,"x_max":981,"o":"m 872 958 q 881 967 872 958 q 917 976 890 976 q 962 958 943 976 q 981 913 981 939 l 981 83 q 953 19 981 46 q 889 -7 926 -7 l 872 -7 q 799 31 826 -7 l 261 807 l 261 56 q 242 11 261 29 q 197 -7 224 -7 q 153 11 171 -7 q 135 56 135 29 l 135 885 q 161 949 135 922 q 225 976 188 976 l 243 976 q 319 935 288 976 l 854 163 l 854 913 q 872 958 854 939 z "},"O":{"ha":1126,"x_min":76,"x_max":1051,"o":"m 213 844 q 278 914 213 844 q 564 983 344 983 q 915 844 783 983 q 1051 485 1047 706 q 915 125 1047 264 q 564 -14 783 -14 q 213 125 344 -14 q 76 485 81 264 q 213 844 81 706 m 564 104 q 828 212 731 104 q 925 485 925 319 q 828 758 925 650 q 564 865 731 865 q 299 758 396 865 q 203 485 203 650 q 299 212 203 319 q 564 104 396 104 z "},"P":{"ha":929,"x_min":135,"x_max":885,"o":"m 514 969 q 689 942 614 969 q 805 869 764 915 q 865 772 846 824 q 885 661 885 719 q 865 551 885 603 q 805 453 846 499 q 689 380 764 407 q 514 353 614 353 l 261 353 l 261 56 q 242 11 261 29 q 197 -7 224 -7 q 153 11 171 -7 q 135 56 135 29 l 135 906 q 153 951 135 932 q 197 969 171 969 l 514 969 m 501 472 q 701 526 643 472 q 758 661 758 581 q 701 796 758 742 q 501 850 643 850 l 261 850 l 261 472 l 501 472 z "},"Q":{"ha":1128,"x_min":76,"x_max":1051,"o":"m 1051 485 q 973 201 1049 322 q 764 24 897 79 l 886 -111 q 903 -151 903 -128 q 886 -193 904 -175 q 843 -211 868 -211 q 799 -189 817 -211 l 647 -8 q 564 -14 613 -14 q 213 125 344 -14 q 76 485 81 264 q 213 844 81 706 q 564 983 344 983 q 915 844 783 983 q 1051 485 1047 706 m 564 104 q 828 212 731 104 q 925 485 925 319 q 828 758 925 650 q 564 865 731 865 q 299 758 396 865 q 203 485 203 650 q 299 212 203 319 q 564 104 396 104 z "},"R":{"ha":989,"x_min":135,"x_max":899,"o":"m 890 119 l 890 56 q 872 11 890 29 q 828 -7 854 -7 q 781 10 799 -7 q 764 56 764 28 l 764 97 q 762 163 764 135 q 748 235 760 190 q 715 307 736 279 q 651 356 694 335 q 549 378 608 378 l 261 378 l 261 56 q 242 11 261 29 q 197 -7 224 -7 q 153 11 171 -7 q 135 56 135 29 l 135 906 q 153 951 135 932 q 197 969 171 969 l 521 969 q 804 892 710 969 q 899 688 899 814 q 852 535 899 604 q 717 436 806 467 q 808 382 771 422 q 862 290 846 342 q 884 197 878 238 q 890 119 890 157 m 513 497 q 702 544 632 497 q 772 678 772 592 q 712 806 772 761 q 506 850 651 850 l 261 850 l 261 497 l 513 497 z "},"S":{"ha":856,"x_min":71,"x_max":796,"o":"m 207 708 q 251 617 207 653 q 360 566 294 581 q 501 530 425 551 q 643 483 578 508 q 752 401 708 458 q 796 257 796 343 q 698 62 796 138 q 440 -14 600 -14 q 110 53 264 -14 q 82 76 93 60 q 71 110 71 92 q 87 151 71 133 q 128 168 103 168 q 154 163 142 168 q 428 106 282 106 q 671 265 671 106 q 638 336 671 307 q 553 382 606 365 q 438 414 501 399 q 313 450 375 429 q 198 499 250 471 q 113 578 146 528 q 81 699 81 629 q 176 901 81 819 q 440 983 271 983 q 717 938 593 983 q 756 882 756 924 q 740 842 756 860 q 700 824 725 824 q 678 829 692 824 q 454 867 569 867 q 276 825 344 867 q 207 708 207 783 z "},"T":{"ha":849,"x_min":19,"x_max":829,"o":"m 769 969 q 812 952 794 969 q 829 910 829 935 q 812 868 829 885 q 769 851 794 851 l 488 851 l 488 56 q 469 11 488 29 q 424 -7 450 -7 q 379 11 397 -7 q 361 56 361 29 l 361 851 l 78 851 q 36 868 53 851 q 19 910 19 885 q 36 952 19 935 q 78 969 53 969 l 769 969 z "},"U":{"ha":1053,"x_min":128,"x_max":925,"o":"m 817 958 q 826 967 817 958 q 861 976 835 976 q 906 958 888 976 q 925 913 925 939 l 925 364 q 890 195 925 269 q 795 76 854 121 q 667 9 736 32 q 526 -14 599 -14 q 385 9 454 -14 q 258 76 317 32 q 163 195 199 121 q 128 364 128 269 l 128 913 q 146 958 128 939 q 190 976 164 976 q 235 958 217 976 q 254 913 254 939 l 254 360 q 335 169 254 238 q 526 101 415 101 q 718 169 638 101 q 799 360 799 238 l 799 913 q 817 958 799 939 z "},"V":{"ha":964,"x_min":33,"x_max":931,"o":"m 156 933 l 482 119 l 808 933 q 868 976 826 976 q 914 959 897 976 q 931 913 931 942 q 926 889 931 900 l 583 57 q 497 -7 554 -7 l 467 -7 q 381 57 410 -7 l 38 889 q 33 913 33 900 q 50 959 33 942 q 96 976 67 976 q 156 933 138 976 z "},"W":{"ha":1399,"x_min":36,"x_max":1364,"o":"m 655 962 q 665 969 655 962 q 700 976 675 976 q 745 962 725 976 q 772 924 765 947 l 1007 160 l 1240 926 q 1303 976 1254 976 q 1348 959 1331 976 q 1364 915 1365 942 q 1360 892 1364 906 l 1088 56 q 1006 -7 1065 -7 q 955 10 978 -7 q 924 56 932 28 l 700 764 l 476 56 q 445 10 468 28 q 394 -7 422 -7 q 313 56 335 -7 l 40 892 q 36 915 36 906 q 52 959 35 942 q 97 976 69 976 q 160 926 146 976 l 393 160 l 628 924 q 655 962 635 947 z "},"X":{"ha":929,"x_min":60,"x_max":869,"o":"m 857 92 q 869 56 869 76 q 852 11 869 29 q 807 -7 835 -7 q 757 19 776 -7 l 460 393 l 167 18 q 118 -7 146 -7 q 77 10 94 -7 q 60 51 60 28 q 72 90 60 74 l 393 485 l 75 876 q 63 915 63 893 q 80 959 63 942 q 124 976 97 976 q 175 951 157 976 l 468 579 l 761 954 q 807 976 776 976 q 850 959 832 976 q 868 917 868 942 q 857 882 868 897 l 536 486 l 857 92 z "},"Y":{"ha":896,"x_min":42,"x_max":856,"o":"m 449 522 l 739 944 q 794 976 760 976 q 839 958 821 976 q 856 913 857 939 q 844 875 856 893 l 511 410 l 511 56 q 493 11 511 29 q 449 -7 475 -7 q 403 11 422 -7 q 385 56 385 29 l 385 410 l 53 875 q 42 913 42 893 q 58 958 40 939 q 103 976 76 976 q 158 944 138 976 l 449 522 z "},"Z":{"ha":886,"x_min":65,"x_max":824,"o":"m 764 118 q 806 101 789 118 q 824 58 824 83 q 806 17 824 33 q 764 0 789 0 l 146 0 q 89 24 113 0 q 65 81 65 47 q 82 132 65 111 l 663 849 l 128 849 q 85 866 103 849 q 68 908 68 883 q 85 951 68 933 q 128 969 103 969 l 731 969 q 792 944 769 969 q 815 883 815 919 q 793 828 815 853 l 219 118 l 764 118 z "},"[":{"ha":447,"x_min":121,"x_max":408,"o":"m 358 -85 q 394 -99 379 -85 q 408 -133 408 -114 q 394 -168 408 -153 q 358 -183 379 -183 l 182 -183 q 139 -165 157 -183 q 121 -122 121 -147 l 121 956 q 139 999 121 981 q 182 1017 157 1017 l 358 1017 q 394 1002 379 1017 q 408 967 408 988 q 394 931 408 946 q 358 917 379 917 l 231 917 l 231 -85 l 358 -85 z "},"\\":{"ha":615,"x_min":65,"x_max":549,"o":"m 122 1061 q 176 1022 164 1061 l 544 -54 q 549 -75 549 -67 q 533 -115 549 -99 q 492 -132 517 -132 q 438 -93 450 -132 l 69 983 q 65 1004 65 996 q 81 1044 65 1028 q 122 1061 97 1061 z "},"]":{"ha":447,"x_min":39,"x_max":326,"o":"m 89 -85 l 217 -85 l 217 917 l 89 917 q 53 931 68 917 q 39 967 39 946 q 53 1002 39 988 q 89 1017 68 1017 l 265 1017 q 308 999 290 1017 q 326 956 326 981 l 326 -122 q 308 -165 326 -147 q 265 -183 290 -183 l 89 -183 q 53 -168 68 -183 q 39 -133 39 -153 q 53 -99 39 -114 q 89 -85 68 -85 z "},"^":{"ha":728,"x_min":114,"x_max":611,"o":"m 336 975 l 389 975 q 457 928 432 975 l 603 651 q 611 626 611 635 q 597 591 611 606 q 561 576 582 576 q 525 592 538 576 q 517 604 524 593 q 363 856 468 686 q 221 625 281 722 q 200 592 201 593 q 164 576 188 576 q 128 591 143 576 q 114 626 114 606 q 122 651 114 635 l 268 928 q 336 975 293 975 z "},"_":{"ha":921,"x_min":72,"x_max":849,"o":"m 803 -112 q 835 -126 822 -112 q 849 -158 849 -139 q 835 -191 849 -178 q 803 -204 822 -204 l 118 -204 q 86 -191 100 -204 q 72 -158 72 -178 q 86 -126 72 -139 q 118 -112 100 -112 l 803 -112 z "},"`":{"ha":342,"x_min":96,"x_max":274,"o":"m 147 1003 q 193 976 179 1003 l 264 851 q 274 825 274 836 q 263 798 274 808 q 236 788 253 788 q 206 803 218 788 l 110 917 q 96 951 96 932 q 110 989 96 975 q 147 1003 125 1003 z "},"a":{"ha":771,"x_min":53,"x_max":667,"o":"m 376 722 q 593 642 519 722 q 667 449 667 561 l 667 56 q 648 11 667 29 q 603 -7 629 -7 q 558 11 576 -7 q 540 56 540 29 l 540 92 q 279 -14 438 -14 q 119 43 185 -14 q 53 194 53 100 q 134 358 53 297 q 372 419 215 419 l 540 419 l 540 431 q 495 563 540 522 q 354 603 450 603 q 169 569 272 603 q 151 567 158 567 q 115 582 131 567 q 100 619 100 597 q 136 672 100 657 q 376 722 254 722 m 326 97 q 444 127 388 97 q 540 201 501 157 l 540 318 l 389 318 q 179 208 179 318 q 326 97 179 97 z "},"b":{"ha":876,"x_min":110,"x_max":810,"o":"m 474 722 q 709 622 608 722 q 810 354 810 522 q 709 86 810 186 q 474 -14 608 -14 q 236 92 338 -14 l 236 56 q 217 11 236 29 q 172 -7 199 -7 q 128 11 146 -7 q 110 56 110 29 l 110 957 q 128 1002 110 983 q 172 1021 146 1021 q 218 1002 200 1021 q 236 957 236 983 l 236 617 q 474 722 338 722 m 456 104 q 621 169 558 104 q 683 354 683 235 q 621 539 683 474 q 456 604 558 604 q 236 500 331 604 l 236 208 q 456 104 331 104 z "},"c":{"ha":744,"x_min":64,"x_max":689,"o":"m 636 157 q 673 140 657 157 q 689 101 689 122 q 661 53 689 71 q 435 -14 558 -14 q 172 86 281 -14 q 64 354 64 186 q 172 622 64 522 q 435 722 281 722 q 661 656 558 722 q 689 607 689 638 q 673 569 689 586 q 636 551 657 551 q 606 560 621 551 q 446 604 519 604 q 258 535 326 604 q 190 354 190 467 q 258 173 190 242 q 446 104 326 104 q 606 149 519 104 q 636 157 621 157 z "},"d":{"ha":876,"x_min":67,"x_max":767,"o":"m 403 722 q 640 617 539 722 l 640 957 q 659 1002 640 983 q 704 1021 678 1021 q 749 1002 731 1021 q 767 957 767 983 l 767 56 q 749 11 767 29 q 704 -7 731 -7 q 659 11 678 -7 q 640 56 640 29 l 640 92 q 403 -14 539 -14 q 167 86 268 -14 q 67 354 67 186 q 167 622 67 522 q 403 722 268 722 m 421 104 q 640 208 546 104 l 640 500 q 421 604 546 604 q 256 539 318 604 q 193 354 193 474 q 256 169 193 235 q 421 104 318 104 z "},"e":{"ha":792,"x_min":68,"x_max":731,"o":"m 651 153 q 690 138 674 153 q 707 99 707 122 q 671 47 707 68 q 428 -14 564 -14 q 163 83 258 -14 q 68 354 68 179 q 153 615 68 508 q 400 722 238 722 q 642 620 554 722 q 731 372 731 518 q 713 328 731 346 q 667 310 696 310 l 196 310 q 268 158 207 213 q 439 104 329 104 q 626 147 543 104 q 651 153 638 153 m 538 564 q 507 590 538 564 q 400 615 476 615 q 263 564 324 615 q 196 413 201 513 l 606 413 q 538 564 600 513 z "},"f":{"ha":528,"x_min":26,"x_max":524,"o":"m 403 907 q 317 881 346 907 q 289 785 289 854 l 289 708 l 463 708 q 501 693 486 708 q 517 654 517 678 q 501 615 517 631 q 463 600 486 600 l 289 600 l 289 56 q 270 11 289 29 q 225 -7 251 -7 q 181 11 199 -7 q 163 56 163 29 l 163 600 l 81 600 q 42 615 58 600 q 26 654 26 631 q 42 693 26 678 q 81 708 58 708 l 163 708 l 163 789 q 224 969 163 910 q 371 1028 286 1028 q 492 1000 436 1028 q 524 951 524 983 q 508 915 524 931 q 472 899 493 899 q 439 903 461 899 q 403 907 417 907 z "},"g":{"ha":876,"x_min":67,"x_max":767,"o":"m 658 697 q 667 706 658 697 q 703 715 676 715 q 748 697 729 715 q 767 651 767 678 l 767 31 q 682 -239 767 -144 q 440 -333 597 -333 q 278 -312 360 -333 q 143 -261 196 -292 q 118 -212 118 -246 q 134 -173 118 -190 q 174 -156 150 -156 q 199 -161 185 -156 q 428 -214 304 -214 q 640 13 640 -214 l 640 106 q 403 0 542 0 q 170 95 274 0 q 67 361 67 190 q 170 627 67 532 q 403 722 274 722 q 640 617 542 722 l 640 651 q 658 697 640 678 m 640 218 l 640 504 q 429 607 540 607 q 259 544 325 607 q 193 361 193 481 q 259 178 193 242 q 429 115 325 115 q 640 218 540 115 z "},"h":{"ha":846,"x_min":110,"x_max":743,"o":"m 494 722 q 676 644 610 722 q 743 450 743 567 l 743 56 q 724 11 743 29 q 679 -7 706 -7 q 635 11 653 -7 q 617 56 617 29 l 617 436 q 464 606 617 606 q 236 472 343 606 l 236 56 q 217 11 236 29 q 172 -7 199 -7 q 128 11 146 -7 q 110 56 110 29 l 110 957 q 128 1002 110 983 q 172 1021 146 1021 q 217 1002 199 1021 q 236 957 236 983 l 236 594 q 494 722 353 722 z "},"i":{"ha":357,"x_min":104,"x_max":254,"o":"m 178 715 q 224 697 206 715 q 242 651 242 678 l 242 56 q 223 11 242 29 q 178 -7 204 -7 q 133 11 151 -7 q 115 56 115 29 l 115 651 q 133 697 115 678 q 178 715 151 715 m 254 929 l 254 924 q 233 874 254 894 q 183 853 213 853 l 175 853 q 125 874 146 853 q 104 924 104 894 l 104 929 q 125 979 104 958 q 175 1000 146 1000 l 183 1000 q 233 979 213 1000 q 254 929 254 958 z "},"j":{"ha":357,"x_min":-64,"x_max":254,"o":"m 178 714 q 224 696 206 714 q 242 650 242 678 l 242 -143 q 198 -281 242 -229 q 60 -333 154 -333 q -28 -321 10 -333 q -64 -271 -64 -310 q -49 -234 -64 -250 q -11 -218 -33 -218 q 8 -220 -6 -218 q 31 -222 22 -222 q 94 -207 74 -222 q 115 -140 115 -192 l 115 650 q 133 695 115 676 q 178 714 151 714 m 254 929 l 254 924 q 233 874 254 894 q 183 853 213 853 l 175 853 q 125 874 146 853 q 104 924 104 894 l 104 929 q 125 979 104 958 q 175 1000 146 1000 l 183 1000 q 233 979 213 1000 q 254 929 254 958 z "},"k":{"ha":758,"x_min":110,"x_max":711,"o":"m 697 92 q 711 54 711 74 q 693 10 711 26 q 647 -7 675 -7 q 596 19 618 -7 l 357 344 l 236 235 l 236 56 q 217 11 236 29 q 172 -7 199 -7 q 128 11 146 -7 q 110 56 110 29 l 110 957 q 128 1002 110 983 q 172 1021 146 1021 q 217 1002 199 1021 q 236 957 236 983 l 236 389 l 567 694 q 608 713 588 713 q 655 694 640 713 q 669 651 669 676 q 646 604 669 628 l 446 425 l 697 92 z "},"l":{"ha":368,"x_min":121,"x_max":247,"o":"m 183 1021 q 229 1002 211 1021 q 247 957 247 983 l 247 56 q 228 11 247 29 q 183 -7 210 -7 q 139 11 157 -7 q 121 56 121 29 l 121 957 q 139 1002 121 983 q 183 1021 157 1021 z "},"m":{"ha":1276,"x_min":110,"x_max":1172,"o":"m 940 722 q 1113 642 1054 722 q 1172 456 1172 561 l 1172 56 q 1153 11 1172 29 q 1108 -7 1135 -7 q 1064 11 1082 -7 q 1046 56 1046 29 l 1046 431 q 1013 563 1046 521 q 904 606 981 606 q 704 472 785 606 l 704 56 q 685 11 704 29 q 640 -7 667 -7 q 596 11 614 -7 q 578 56 578 29 l 578 431 q 546 563 578 521 q 436 606 514 606 q 236 472 317 606 l 236 56 q 217 11 236 29 q 172 -7 199 -7 q 128 11 146 -7 q 110 56 110 29 l 110 651 q 128 697 110 678 q 172 715 146 715 q 217 697 199 715 q 236 651 236 678 l 236 594 q 472 722 328 722 q 606 681 550 722 q 685 579 661 639 q 940 722 771 722 z "},"n":{"ha":846,"x_min":110,"x_max":743,"o":"m 494 722 q 676 644 610 722 q 743 450 743 567 l 743 56 q 724 11 743 29 q 679 -7 706 -7 q 635 11 653 -7 q 617 56 617 29 l 617 436 q 464 606 617 606 q 236 472 343 606 l 236 56 q 217 11 236 29 q 172 -7 199 -7 q 128 11 146 -7 q 110 56 110 29 l 110 651 q 128 697 110 678 q 172 715 146 715 q 217 697 199 715 q 236 651 236 678 l 236 594 q 494 722 353 722 z "},"o":{"ha":844,"x_min":67,"x_max":778,"o":"m 422 722 q 680 621 582 722 q 778 354 778 519 q 680 88 778 189 q 422 -14 582 -14 q 164 88 261 -14 q 67 354 67 189 q 164 621 67 519 q 422 722 261 722 m 262 165 q 296 133 262 165 q 422 101 331 101 q 583 165 514 101 q 651 356 651 228 q 583 544 651 482 q 422 607 514 607 q 262 544 331 607 q 193 356 193 482 q 262 165 193 228 z "},"p":{"ha":876,"x_min":110,"x_max":810,"o":"m 474 -14 q 236 92 338 -14 l 236 -262 q 218 -308 236 -289 q 172 -326 200 -326 q 128 -308 146 -326 q 110 -262 110 -289 l 110 653 q 128 697 110 679 q 172 715 146 715 q 217 697 199 715 q 236 653 236 679 l 236 617 q 474 722 338 722 q 709 622 608 722 q 810 354 810 522 q 709 86 810 186 q 474 -14 608 -14 m 456 604 q 236 500 331 604 l 236 208 q 456 104 331 104 q 621 169 558 104 q 683 354 683 235 q 621 539 683 474 q 456 604 558 604 z "},"q":{"ha":876,"x_min":67,"x_max":767,"o":"m 403 -14 q 167 86 268 -14 q 67 354 67 186 q 167 622 67 522 q 403 722 268 722 q 640 617 539 722 l 640 653 q 659 697 640 679 q 704 715 678 715 q 749 697 731 715 q 767 653 767 679 l 767 -262 q 749 -308 767 -289 q 704 -326 731 -326 q 659 -308 678 -326 q 640 -262 640 -289 l 640 92 q 403 -14 539 -14 m 421 604 q 256 539 318 604 q 193 354 193 474 q 256 169 193 235 q 421 104 318 104 q 640 208 546 104 l 640 500 q 421 604 546 604 z "},"r":{"ha":538,"x_min":110,"x_max":522,"o":"m 461 722 q 505 704 488 722 q 522 660 522 686 q 504 617 522 633 q 458 600 486 600 l 451 600 q 236 478 318 600 l 236 56 q 217 11 236 29 q 172 -7 199 -7 q 128 11 146 -7 q 110 56 110 29 l 110 651 q 128 697 110 678 q 172 715 146 715 q 217 697 199 715 q 236 651 236 678 l 236 592 q 454 722 335 722 l 461 722 z "},"s":{"ha":667,"x_min":67,"x_max":611,"o":"m 193 510 q 236 449 193 471 q 341 413 279 426 q 464 381 403 400 q 568 314 525 361 q 611 192 611 267 q 541 44 611 103 q 343 -14 471 -14 q 90 49 204 -14 q 67 94 67 65 q 82 133 67 117 q 121 150 97 150 q 146 144 133 150 q 335 103 240 103 q 489 201 489 103 q 446 253 489 233 q 342 288 403 274 q 219 321 281 301 q 115 386 158 340 q 72 503 72 432 q 142 661 72 600 q 343 722 213 722 q 544 688 450 722 q 585 635 585 675 q 569 596 585 613 q 529 579 553 579 q 511 582 522 579 q 353 607 431 607 q 235 580 278 607 q 193 510 193 553 z "},"t":{"ha":533,"x_min":31,"x_max":506,"o":"m 456 110 q 490 95 475 110 q 506 60 506 81 q 474 11 506 28 q 358 -14 419 -14 q 156 169 156 -14 l 156 600 l 57 600 q 31 626 31 600 q 43 650 31 639 l 232 835 q 256 847 244 847 q 274 839 267 847 q 282 819 282 831 l 282 708 l 439 708 q 477 693 461 708 q 493 654 493 678 q 477 615 493 631 q 439 600 461 600 l 282 600 l 282 181 q 290 133 282 151 q 315 108 299 115 q 342 99 331 101 q 372 97 354 97 q 422 103 397 97 q 456 110 446 110 z "},"u":{"ha":847,"x_min":104,"x_max":738,"o":"m 353 -14 q 171 64 238 -14 q 104 258 104 142 l 104 653 q 123 697 104 679 q 168 715 142 715 q 213 697 194 715 q 231 653 231 679 l 231 272 q 383 103 231 103 q 611 236 504 103 l 611 653 q 630 697 611 679 q 675 715 649 715 q 719 697 701 715 q 738 653 738 679 l 738 57 q 719 12 738 31 q 675 -7 701 -7 q 630 12 649 -7 q 611 57 611 31 l 611 114 q 353 -14 494 -14 z "},"v":{"ha":736,"x_min":36,"x_max":700,"o":"m 638 715 q 682 697 664 715 q 700 651 700 678 q 693 622 700 639 l 451 44 q 375 -7 428 -7 l 361 -7 q 285 44 308 -7 l 43 622 q 36 651 36 639 q 54 697 36 678 q 99 715 72 715 q 156 679 142 715 l 368 140 l 581 679 q 638 715 594 715 z "},"w":{"ha":1090,"x_min":35,"x_max":1057,"o":"m 994 715 q 1039 697 1021 715 q 1057 653 1057 679 q 1053 629 1057 642 l 856 51 q 825 10 847 26 q 775 -7 803 -7 q 725 10 747 -7 q 693 53 703 26 l 546 513 l 399 53 q 367 10 389 26 q 317 -7 344 -7 q 267 10 289 -7 q 236 51 244 26 l 39 629 q 35 653 35 642 q 53 697 35 679 q 97 715 71 715 q 154 678 143 715 l 317 143 l 478 665 q 503 701 485 688 q 546 715 522 715 q 588 701 569 715 q 614 665 607 688 l 775 143 l 938 678 q 994 715 949 715 z "},"x":{"ha":753,"x_min":71,"x_max":683,"o":"m 450 358 l 667 97 q 682 57 682 81 q 665 12 682 31 q 618 -7 649 -7 q 569 18 588 -7 l 372 254 l 186 21 q 132 -7 165 -7 q 88 10 104 -7 q 72 57 72 28 q 86 96 72 78 l 301 350 l 86 613 q 71 653 71 632 q 89 698 71 681 q 133 715 107 715 q 183 692 167 715 l 378 451 l 571 692 q 619 715 588 715 q 665 698 647 715 q 683 656 683 681 q 669 617 683 635 l 450 358 z "},"y":{"ha":740,"x_min":33,"x_max":707,"o":"m 707 651 q 703 628 707 639 l 324 -283 q 265 -326 304 -326 q 223 -308 240 -326 q 206 -265 206 -290 q 210 -243 206 -253 l 300 -11 l 39 625 q 33 651 33 639 q 51 697 33 678 q 96 715 69 715 q 154 676 138 715 l 368 146 l 586 674 q 644 715 604 715 q 689 697 671 715 q 707 651 707 678 z "},"z":{"ha":693,"x_min":54,"x_max":635,"o":"m 617 101 q 626 92 617 101 q 635 58 635 83 q 617 17 635 33 q 575 0 600 0 l 142 0 q 79 19 104 0 q 54 74 54 39 q 76 131 54 106 l 476 590 l 125 590 q 83 607 100 590 q 67 649 67 624 q 83 691 67 674 q 125 708 100 708 l 546 708 q 604 686 582 708 q 626 629 626 664 q 607 574 626 597 l 218 118 l 575 118 q 617 101 600 118 z "},"{":{"ha":478,"x_min":4,"x_max":439,"o":"m 390 -201 l 374 -201 q 230 -165 281 -201 q 179 -35 179 -129 l 179 258 q 176 293 179 281 q 162 323 174 306 q 123 352 150 340 q 51 371 96 364 q 4 426 4 379 q 51 482 4 474 q 123 501 96 489 q 162 530 150 513 q 176 560 174 547 q 179 594 179 572 l 179 888 q 230 1018 179 982 q 374 1054 281 1054 l 390 1054 q 424 1040 410 1054 q 439 1006 439 1025 q 424 972 439 986 q 390 957 410 957 l 369 957 q 314 947 333 957 q 291 926 294 936 q 288 899 288 915 l 288 590 q 163 426 288 472 q 288 263 288 381 l 288 -46 q 291 -73 288 -62 q 314 -94 294 -83 q 369 -104 333 -104 l 390 -104 q 424 -119 410 -104 q 439 -153 439 -133 q 424 -187 439 -172 q 390 -201 410 -201 z "},"|":{"ha":351,"x_min":119,"x_max":232,"o":"m 135 1013 q 143 1021 135 1013 q 175 1029 151 1029 q 215 1013 199 1029 q 232 972 232 996 l 232 -217 q 215 -256 232 -240 q 175 -272 199 -272 q 135 -256 151 -272 q 119 -217 119 -240 l 119 972 q 135 1013 119 996 z "},"}":{"ha":478,"x_min":39,"x_max":474,"o":"m 104 -201 l 88 -201 q 53 -187 68 -201 q 39 -153 39 -172 q 53 -119 39 -133 q 88 -104 68 -104 l 108 -104 q 164 -94 144 -104 q 187 -73 183 -83 q 190 -46 190 -62 l 190 263 q 315 426 190 381 q 190 590 190 472 l 190 899 q 187 926 190 915 q 164 947 183 936 q 108 957 144 957 l 88 957 q 53 972 68 957 q 39 1006 39 986 q 53 1040 39 1025 q 88 1054 68 1054 l 104 1054 q 248 1018 197 1054 q 299 888 299 982 l 299 594 q 301 560 299 572 q 316 530 304 547 q 355 501 328 513 q 426 482 382 489 q 474 426 474 474 q 426 371 474 379 q 355 352 382 364 q 316 323 328 340 q 301 293 304 306 q 299 258 299 281 l 299 -35 q 248 -165 299 -129 q 104 -201 197 -201 z "},"~":{"ha":886,"x_min":103,"x_max":788,"o":"m 754 508 q 781 497 769 508 q 788 465 792 486 q 724 332 771 378 q 611 286 676 286 q 485 313 549 286 q 366 365 421 339 q 269 392 311 392 q 172 317 193 392 q 139 290 165 290 q 114 301 125 290 q 103 326 103 311 q 156 452 103 394 q 279 510 210 510 q 407 483 343 510 q 526 431 471 457 q 622 404 582 404 q 657 407 643 404 q 681 419 671 410 q 694 436 690 429 q 707 460 699 443 q 721 488 715 478 q 754 508 731 508 z "}," ":{"ha":361,"x_min":0,"x_max":0,"o":""},"¡":{"ha":360,"x_min":99,"x_max":264,"o":"m 181 440 q 226 400 224 440 l 251 -58 l 251 -196 q 231 -247 251 -226 q 181 -268 211 -268 q 129 -247 150 -268 q 108 -196 108 -226 l 108 -58 l 133 400 q 181 440 136 440 m 181 549 q 123 573 147 549 q 99 631 99 597 q 123 690 99 665 q 181 714 147 714 q 240 690 215 714 q 264 631 264 665 q 240 573 264 597 q 181 549 215 549 z "},"¢":{"ha":765,"x_min":61,"x_max":686,"o":"m 582 861 q 610 849 599 861 q 621 821 621 838 q 618 807 621 815 l 581 696 q 658 656 619 682 q 686 607 686 638 q 670 569 686 586 q 633 551 654 551 q 603 560 618 551 l 543 588 l 379 110 q 443 104 406 104 q 603 149 517 104 q 633 157 618 157 q 670 140 654 157 q 686 101 686 122 q 658 53 686 71 q 432 -14 556 -14 q 340 -3 388 -14 l 292 -146 q 254 -171 283 -171 q 226 -159 238 -171 q 215 -132 215 -147 q 219 -114 215 -122 l 265 21 q 117 149 172 63 q 61 354 61 235 q 169 622 61 522 q 432 722 278 722 q 504 717 460 722 l 544 835 q 582 861 554 861 m 188 354 q 306 136 188 199 l 465 603 q 443 604 458 604 q 256 535 324 604 q 188 354 188 467 z "},"£":{"ha":839,"x_min":54,"x_max":785,"o":"m 728 129 q 768 113 751 129 q 785 74 785 97 q 753 24 785 42 q 606 -14 685 -14 q 468 17 547 -14 q 329 49 389 49 q 179 1 249 49 q 147 -10 164 -10 q 111 5 126 -10 q 96 39 96 19 q 115 82 96 65 q 206 204 168 132 q 243 354 243 276 q 235 426 243 392 l 85 426 q 54 457 54 426 q 63 480 54 471 q 85 489 71 489 l 218 489 q 208 519 215 497 q 198 553 201 542 q 189 585 194 564 q 181 621 183 606 q 176 657 178 636 q 174 697 174 678 q 266 907 174 831 q 511 983 358 983 q 711 943 614 983 q 753 888 753 926 q 736 846 753 863 q 694 829 719 829 q 668 835 685 829 q 517 861 586 861 q 349 815 399 861 q 300 703 300 769 q 306 647 300 678 q 316 597 311 617 q 333 540 321 578 q 349 489 344 503 l 594 489 q 617 480 608 489 q 626 457 626 471 q 617 435 626 443 q 594 426 608 426 l 363 426 q 368 363 368 399 q 310 164 368 256 q 326 165 315 164 q 344 165 338 165 q 485 137 400 165 q 618 108 569 108 q 706 124 663 108 q 728 129 722 129 z "},"¤":{"ha":928,"x_min":92,"x_max":836,"o":"m 143 113 q 106 128 121 113 q 92 164 92 143 q 107 200 92 185 l 197 290 q 135 485 135 379 q 197 679 135 590 l 107 769 q 92 806 92 785 q 106 842 92 826 q 143 857 121 857 q 179 842 161 857 l 271 751 q 464 814 358 814 q 657 751 569 814 l 749 842 q 785 857 767 857 q 822 842 807 857 q 836 806 836 826 q 821 769 836 785 l 731 679 q 793 485 793 590 q 731 290 793 379 l 821 200 q 836 164 836 185 q 822 128 836 143 q 785 113 807 113 q 749 128 767 113 l 657 218 q 464 156 569 156 q 271 218 358 156 l 179 128 q 143 113 161 113 m 617 638 q 585 670 617 638 q 464 701 553 701 q 311 638 375 701 q 247 485 247 575 q 311 331 247 394 q 464 268 375 268 q 617 331 553 268 q 681 485 681 394 q 617 638 681 575 z "},"¥":{"ha":914,"x_min":90,"x_max":824,"o":"m 217 950 l 457 529 l 697 950 q 757 989 719 989 q 804 971 785 989 q 824 924 824 953 q 813 888 824 906 l 579 507 l 715 507 q 752 492 738 507 q 767 454 767 476 q 752 417 767 432 q 715 403 738 403 l 519 403 l 519 276 l 715 276 q 752 261 738 276 q 767 224 767 246 q 752 187 767 201 q 715 172 738 172 l 519 172 l 519 54 q 501 10 519 28 q 457 -8 482 -8 q 413 10 432 -8 q 394 54 394 28 l 394 172 l 199 172 q 162 187 176 172 q 147 224 147 201 q 162 261 147 246 q 199 276 176 276 l 394 276 l 394 403 l 199 403 q 162 417 176 403 q 147 454 147 432 q 162 492 147 476 q 199 507 176 507 l 335 507 l 101 888 q 90 924 90 906 q 110 971 90 953 q 157 989 129 989 q 217 950 194 989 z "},"§":{"ha":735,"x_min":65,"x_max":665,"o":"m 528 229 q 618 63 618 168 q 548 -85 618 -26 q 350 -143 478 -143 q 88 -81 186 -143 q 65 -35 65 -67 q 81 5 65 -11 q 119 21 97 21 q 149 13 132 21 q 342 -26 226 -26 q 499 71 499 -26 q 456 136 499 108 q 351 185 413 164 q 227 235 289 207 q 122 313 165 263 q 79 435 79 364 q 215 610 79 564 q 126 778 126 675 q 197 925 126 867 q 394 983 267 983 q 603 946 511 983 q 640 892 640 931 q 623 853 640 869 q 583 836 606 836 q 563 840 572 836 q 403 867 492 867 q 246 769 246 867 q 277 713 246 738 q 355 671 308 688 q 456 631 401 654 q 556 583 510 608 q 634 511 603 557 q 665 406 665 465 q 528 229 665 274 m 444 275 q 549 397 549 300 q 535 445 549 424 q 493 483 522 467 q 438 511 464 500 q 368 538 413 522 q 299 565 324 554 q 196 443 196 540 q 209 395 196 417 q 251 357 222 374 q 306 330 281 340 q 376 302 331 319 q 444 275 421 285 z "},"¨":{"ha":556,"x_min":88,"x_max":464,"o":"m 108 919 q 119 930 108 919 q 158 940 129 940 q 208 919 188 940 q 229 869 229 899 q 208 819 229 840 q 158 799 188 799 q 108 819 129 799 q 88 869 88 840 q 108 919 88 899 m 343 919 q 353 930 343 919 q 393 940 364 940 q 443 919 422 940 q 464 869 464 899 q 443 819 464 840 q 393 799 422 799 q 343 819 364 799 q 322 869 322 840 q 343 919 322 899 z "},"©":{"ha":1138,"x_min":71,"x_max":1068,"o":"m 921 133 q 848 60 921 133 q 569 -12 775 -12 q 217 133 364 -12 q 71 485 71 279 q 217 836 71 690 q 569 982 364 982 q 921 836 775 982 q 1068 485 1067 690 q 921 133 1067 279 m 568 910 q 268 785 393 910 q 143 485 143 660 q 268 185 143 310 q 568 60 393 60 q 870 185 744 60 q 996 485 996 310 q 870 785 996 660 q 568 910 744 910 m 813 349 q 578 203 740 203 q 384 280 458 203 q 310 485 310 357 q 384 690 310 613 q 578 767 458 767 q 813 621 740 767 q 817 603 817 613 q 804 571 817 583 q 772 558 792 558 q 729 589 746 558 q 578 682 676 682 q 449 625 494 682 q 403 485 403 568 q 449 344 403 401 q 578 288 494 288 q 729 381 676 288 q 772 411 746 411 q 804 399 792 411 q 817 367 817 386 q 813 349 817 357 z "},"ª":{"ha":674,"x_min":92,"x_max":563,"o":"m 524 396 q 551 384 539 396 q 563 357 563 372 q 551 330 563 342 q 524 318 539 318 l 131 318 q 103 330 115 318 q 92 357 92 342 q 103 384 92 372 q 131 396 115 396 l 524 396 m 336 768 l 442 768 l 442 771 q 413 861 442 833 q 324 889 383 889 q 197 867 258 889 q 183 864 189 864 q 152 877 165 864 q 139 908 139 890 q 171 950 139 938 q 339 983 258 983 q 490 926 439 983 q 542 790 542 869 l 542 525 q 527 490 542 504 q 492 475 513 475 q 456 490 471 475 q 442 525 442 504 l 442 538 q 274 471 383 471 q 160 511 207 471 q 113 619 113 551 q 169 729 113 690 q 336 768 225 768 m 306 561 q 442 626 382 561 l 442 693 l 347 693 q 213 628 213 693 q 306 561 213 561 z "},"«":{"ha":813,"x_min":75,"x_max":710,"o":"m 421 82 q 406 43 421 58 q 367 28 390 28 q 328 43 340 28 l 100 294 q 75 354 75 322 q 100 414 75 386 l 328 665 q 367 681 340 681 q 406 665 390 681 q 421 626 421 650 q 408 590 421 606 l 186 354 l 408 118 q 421 82 421 104 m 710 82 q 694 43 710 58 q 656 28 679 28 q 617 43 629 28 l 389 294 q 364 354 364 322 q 389 414 364 386 l 617 665 q 656 681 629 681 q 694 665 679 681 q 710 626 710 650 q 697 590 710 606 l 475 354 l 697 118 q 710 82 710 104 z "},"¬":{"ha":804,"x_min":101,"x_max":689,"o":"m 631 532 q 672 515 654 532 q 689 474 689 497 l 689 285 q 674 248 689 263 q 636 233 658 233 q 599 248 614 233 q 585 285 585 263 l 585 432 l 151 432 q 116 447 131 432 q 101 482 101 461 q 116 517 101 503 q 151 532 131 532 l 631 532 z "},"®":{"ha":1138,"x_min":71,"x_max":1068,"o":"m 217 838 q 291 910 217 838 q 569 983 364 983 q 922 838 775 983 q 1068 485 1068 692 q 922 132 1068 278 q 569 -14 775 -14 q 217 132 364 -14 q 71 485 71 278 q 217 838 71 692 m 568 58 q 870 183 744 58 q 996 486 996 308 q 870 786 996 661 q 568 911 744 911 q 268 786 393 911 q 143 486 143 661 q 268 184 143 310 q 568 58 393 58 m 810 594 q 707 460 810 499 q 774 403 746 446 q 803 286 803 361 l 803 249 q 789 215 803 229 q 756 201 775 201 q 722 215 736 201 q 708 249 708 229 l 708 274 q 708 308 708 296 q 702 343 707 319 q 688 380 697 367 q 657 404 678 393 q 607 415 636 415 l 456 415 l 456 247 q 442 215 456 228 q 408 201 428 201 q 376 215 389 201 q 363 247 363 228 l 363 697 q 381 742 363 724 q 425 761 399 761 l 592 761 q 756 715 701 761 q 810 594 810 669 m 588 497 q 683 522 647 497 q 718 592 718 546 q 585 681 718 681 l 456 681 l 456 497 l 588 497 z "},"¯":{"ha":433,"x_min":11,"x_max":419,"o":"m 378 900 q 408 888 396 900 q 419 858 419 876 q 408 828 419 840 q 378 817 396 817 l 53 817 q 23 828 35 817 q 11 858 11 840 q 23 888 11 876 q 53 900 35 900 l 378 900 z "},"°":{"ha":525,"x_min":72,"x_max":453,"o":"m 263 983 q 397 928 342 983 q 453 793 453 872 q 397 659 453 715 q 263 603 342 603 q 128 659 185 603 q 72 793 72 715 q 128 928 72 872 q 263 983 185 983 m 179 710 q 197 692 179 710 q 263 675 214 675 q 346 710 311 675 q 381 793 381 744 q 346 876 381 842 q 263 911 311 911 q 179 876 214 911 q 144 793 144 842 q 179 710 144 744 z "},"±":{"ha":842,"x_min":86,"x_max":756,"o":"m 701 107 q 740 91 725 107 q 756 53 756 75 q 740 15 756 31 q 701 0 725 0 l 139 0 q 101 15 117 0 q 86 53 86 31 q 101 92 86 76 q 139 107 117 107 l 701 107 m 139 475 q 101 490 117 475 q 86 528 86 506 q 101 567 86 551 q 139 582 117 582 l 367 582 l 367 801 q 382 840 367 825 q 421 856 397 856 q 460 840 444 856 q 475 801 475 825 l 475 582 l 701 582 q 740 566 725 582 q 756 528 756 550 q 740 490 756 506 q 701 475 725 475 l 475 475 l 475 256 q 460 217 475 233 q 421 201 444 201 q 382 217 397 201 q 367 256 367 233 l 367 475 l 139 475 z "},"²":{"ha":514,"x_min":53,"x_max":454,"o":"m 413 708 q 442 697 431 708 q 454 667 454 685 q 442 638 454 649 q 413 626 431 626 l 107 626 q 68 643 83 626 q 53 682 53 660 q 101 783 53 735 q 207 864 149 832 q 313 936 265 896 q 361 1013 361 976 q 253 1096 361 1096 q 121 1065 176 1096 q 103 1061 113 1061 q 75 1072 86 1061 q 64 1100 64 1082 q 83 1135 64 1124 q 264 1181 156 1181 q 397 1134 344 1181 q 449 1018 449 1088 q 408 915 449 965 q 319 833 368 864 q 217 766 269 801 q 149 708 164 731 l 413 708 z "},"³":{"ha":514,"x_min":50,"x_max":447,"o":"m 342 908 q 447 774 447 876 q 398 663 447 707 q 244 618 349 618 q 74 653 136 618 q 50 690 50 665 q 63 719 50 707 q 90 731 75 731 q 106 728 94 731 q 232 704 183 704 q 360 776 360 704 q 204 863 360 863 l 189 863 q 159 874 171 863 q 147 904 147 886 q 159 934 147 922 q 189 946 171 946 l 196 946 q 342 1026 342 946 q 233 1096 342 1096 q 114 1069 169 1096 q 96 1065 106 1065 q 69 1076 81 1065 q 57 1103 57 1086 q 83 1139 57 1125 q 239 1181 161 1181 q 381 1140 335 1181 q 428 1033 428 1099 q 342 908 428 942 z "},"´":{"ha":333,"x_min":67,"x_max":244,"o":"m 193 1003 q 231 989 217 1003 q 244 951 244 975 q 231 917 244 932 l 135 803 q 104 788 122 788 q 77 798 88 788 q 67 825 67 808 q 76 851 67 836 l 147 976 q 193 1003 161 1003 z "},"µ":{"ha":839,"x_min":117,"x_max":750,"o":"m 642 697 q 652 706 642 697 q 688 715 661 715 q 732 697 714 715 q 750 653 750 679 l 750 57 q 732 12 750 31 q 688 -7 714 -7 q 642 12 661 -7 q 624 57 624 31 l 624 114 q 512 20 568 54 q 372 -14 456 -14 q 243 24 299 -14 l 243 -240 q 224 -285 243 -267 q 179 -303 206 -303 q 135 -285 153 -303 q 117 -240 117 -267 l 117 653 q 135 697 117 679 q 181 715 154 715 q 225 697 207 715 q 243 653 243 679 l 243 272 q 396 103 243 103 q 624 236 517 103 l 624 653 q 642 697 624 679 z "},"¶":{"ha":1017,"x_min":54,"x_max":956,"o":"m 900 969 q 939 953 922 969 q 956 914 956 936 q 940 876 956 892 q 900 860 924 860 l 836 860 l 836 -256 q 819 -294 836 -278 q 781 -311 803 -311 q 742 -295 758 -311 q 726 -256 726 -279 l 726 860 l 571 860 l 571 -256 q 555 -294 571 -278 q 515 -311 539 -311 q 477 -295 493 -311 q 461 -256 461 -279 l 461 256 l 411 256 q 159 360 264 256 q 54 613 54 464 q 159 865 54 761 q 411 969 264 969 l 900 969 z "},"·":{"ha":361,"x_min":96,"x_max":265,"o":"m 188 478 q 242 455 219 478 q 265 400 265 432 l 265 392 q 242 337 265 360 q 188 314 219 314 l 174 314 q 119 337 142 314 q 96 392 96 360 l 96 400 q 119 455 96 432 q 174 478 142 478 l 188 478 z "},"¸":{"ha":426,"x_min":63,"x_max":357,"o":"m 250 -82 q 327 -109 297 -82 q 357 -179 357 -136 q 203 -307 357 -307 q 78 -271 136 -307 q 63 -247 63 -261 q 89 -219 63 -219 q 103 -224 94 -219 q 185 -247 146 -247 q 264 -183 264 -247 q 250 -151 264 -162 q 214 -140 236 -140 q 153 -156 183 -140 q 139 -160 144 -160 q 122 -153 129 -160 q 114 -137 114 -147 q 119 -118 114 -126 l 208 24 l 267 24 l 203 -87 q 250 -82 225 -82 z "},"¹":{"ha":514,"x_min":108,"x_max":433,"o":"m 392 708 q 422 697 410 708 q 433 667 433 685 q 422 638 433 649 q 392 626 410 626 l 150 626 q 121 638 132 626 q 110 667 110 649 q 121 697 110 685 q 150 708 132 708 l 233 708 l 233 1076 l 171 1046 q 150 1040 157 1040 q 121 1052 133 1040 q 108 1082 108 1064 q 135 1121 108 1108 l 235 1172 q 263 1179 249 1179 q 306 1162 289 1179 q 322 1119 322 1144 l 322 708 l 392 708 z "},"º":{"ha":714,"x_min":97,"x_max":617,"o":"m 177 913 q 211 948 177 913 q 357 983 244 983 q 537 913 469 983 q 604 728 604 843 q 537 542 604 613 q 357 471 469 471 q 177 542 244 471 q 110 728 110 613 q 177 913 110 843 m 254 602 q 276 581 254 602 q 357 560 299 560 q 460 602 415 560 q 504 729 504 644 q 460 854 504 813 q 357 896 415 896 q 254 854 299 896 q 210 729 210 813 q 254 602 210 644 m 578 396 q 605 384 593 396 q 617 357 617 372 q 605 330 617 342 q 578 318 593 318 l 136 318 q 109 330 121 318 q 97 357 97 342 q 109 384 97 372 q 136 396 121 396 l 578 396 z "},"»":{"ha":813,"x_min":103,"x_max":738,"o":"m 392 82 q 404 118 392 104 l 626 354 l 404 590 q 392 626 392 606 q 407 665 392 650 q 446 681 422 681 q 485 665 472 681 l 713 414 q 738 354 738 386 q 713 294 738 322 l 485 43 q 446 28 472 28 q 407 43 422 28 q 392 82 392 58 m 103 82 q 115 118 103 104 l 338 354 l 115 590 q 103 626 103 606 q 118 665 103 650 q 157 681 133 681 q 196 665 183 681 l 424 414 q 449 354 449 386 q 424 294 449 322 l 196 43 q 157 28 183 28 q 118 43 133 28 q 103 82 103 58 z "},"¼":{"ha":1306,"x_min":118,"x_max":1204,"o":"m 1163 215 q 1192 203 1181 215 q 1204 174 1204 192 q 1192 144 1204 156 q 1163 133 1181 133 l 1113 133 l 1113 38 q 1099 6 1113 19 q 1068 -7 1086 -7 q 1037 6 1050 -7 q 1024 38 1024 19 l 1024 133 l 807 133 q 766 151 783 133 q 749 192 749 168 q 764 232 749 213 l 993 521 q 1043 550 1017 550 l 1054 550 q 1096 533 1079 550 q 1113 492 1113 515 l 1113 215 l 1163 215 m 847 215 l 1024 215 l 1024 440 l 847 215 m 364 -33 q 331 -20 344 -33 q 317 14 317 -7 q 324 39 317 25 l 899 986 q 938 1006 910 1006 q 971 992 957 1006 q 985 958 985 979 q 978 933 985 947 l 403 -14 q 364 -33 392 -33 m 401 513 q 431 501 419 513 q 443 471 443 489 q 431 442 443 453 q 401 431 419 431 l 160 431 q 131 442 142 431 q 119 471 119 453 q 131 501 119 489 q 160 513 142 513 l 243 513 l 243 881 l 181 850 q 160 844 167 844 q 131 856 143 844 q 118 886 118 868 q 144 925 118 911 l 244 976 q 272 983 258 983 q 315 966 299 983 q 332 924 332 949 l 332 513 l 401 513 z "},"½":{"ha":1306,"x_min":110,"x_max":1201,"o":"m 393 513 q 423 501 411 513 q 435 471 435 489 q 423 442 435 453 q 393 431 411 431 l 151 431 q 122 442 133 431 q 111 471 111 453 q 122 501 111 489 q 151 513 133 513 l 235 513 l 235 881 l 172 850 q 151 844 158 844 q 122 856 135 844 q 110 886 110 868 q 136 925 110 911 l 236 976 q 264 983 250 983 q 307 966 290 983 q 324 924 324 949 l 324 513 l 393 513 m 356 -33 q 322 -20 336 -33 q 308 14 308 -7 q 315 39 308 25 l 890 986 q 929 1006 901 1006 q 963 992 949 1006 q 976 958 976 979 q 969 933 976 947 l 394 -14 q 356 -33 383 -33 m 1160 82 q 1190 70 1178 82 q 1201 40 1201 58 q 1190 11 1201 22 q 1160 0 1178 0 l 854 0 q 815 17 831 0 q 800 56 800 33 q 848 157 800 108 q 954 238 896 206 q 1060 310 1013 269 q 1108 386 1108 350 q 1000 469 1108 469 q 868 439 924 469 q 850 435 860 435 q 822 445 833 435 q 811 474 811 456 q 831 508 811 497 q 1011 554 903 554 q 1144 508 1092 554 q 1196 392 1196 461 q 1156 288 1196 339 q 1066 206 1115 238 q 964 140 1017 175 q 896 82 911 104 l 1160 82 z "},"¾":{"ha":1306,"x_min":88,"x_max":1224,"o":"m 1182 215 q 1212 203 1200 215 q 1224 174 1224 192 q 1212 144 1224 156 q 1182 133 1200 133 l 1132 133 l 1132 38 q 1119 6 1132 19 q 1088 -7 1106 -7 q 1056 6 1069 -7 q 1043 38 1043 19 l 1043 133 l 826 133 q 785 151 803 133 q 768 192 768 168 q 783 232 768 213 l 1013 521 q 1063 550 1036 550 l 1074 550 q 1115 533 1099 550 q 1132 492 1132 515 l 1132 215 l 1182 215 m 867 215 l 1043 215 l 1043 440 l 867 215 m 383 -33 q 350 -20 364 -33 q 336 14 336 -7 q 343 39 336 25 l 918 986 q 957 1006 929 1006 q 990 992 976 1006 q 1004 958 1004 979 q 997 933 1004 947 l 422 -14 q 383 -33 411 -33 m 379 713 q 485 578 485 681 q 435 467 485 511 q 282 422 386 422 q 111 457 174 422 q 88 494 88 469 q 100 523 88 511 q 128 535 113 535 q 143 532 132 535 q 269 508 221 508 q 397 581 397 508 q 242 667 397 667 l 226 667 q 197 678 208 667 q 185 708 185 690 q 197 738 185 726 q 226 750 208 750 l 233 750 q 379 831 379 750 q 271 900 379 900 q 151 874 207 900 q 133 869 143 869 q 106 880 118 869 q 94 907 94 890 q 121 943 94 929 q 276 985 199 985 q 419 944 372 985 q 465 838 465 903 q 379 713 465 746 z "},"¿":{"ha":678,"x_min":56,"x_max":647,"o":"m 368 -275 q 141 -204 226 -275 q 56 -12 56 -133 q 83 97 56 49 q 147 177 110 146 q 223 238 185 208 q 288 308 261 268 q 315 396 315 347 q 333 434 315 418 q 376 450 351 450 q 420 434 403 450 q 438 396 438 418 q 411 278 438 331 q 347 191 385 225 q 271 128 308 157 q 207 65 233 99 q 181 -6 181 32 q 379 -157 181 -157 q 557 -111 483 -157 q 592 -100 574 -100 q 631 -117 614 -100 q 647 -156 647 -133 q 613 -208 647 -187 q 368 -275 506 -275 m 379 549 q 320 573 344 549 q 296 631 296 597 q 320 690 296 665 q 379 714 344 714 q 437 690 413 714 q 461 631 461 665 q 437 573 461 597 q 379 549 413 549 z "},"À":{"ha":968,"x_min":36,"x_max":933,"o":"m 408 1242 q 454 1215 440 1242 l 525 1090 q 535 1064 535 1076 q 524 1037 535 1047 q 497 1026 514 1026 q 467 1042 479 1026 l 371 1156 q 357 1190 357 1171 q 372 1228 357 1214 q 408 1242 386 1242 m 926 83 q 933 56 933 67 q 916 11 933 29 q 871 -7 899 -7 q 811 32 828 -7 l 721 249 l 249 249 l 158 32 q 99 -7 142 -7 q 53 11 71 -7 q 36 56 36 29 q 43 83 36 67 l 397 919 q 478 976 422 976 l 492 976 q 572 919 547 976 l 926 83 m 297 364 l 672 364 l 485 815 l 297 364 z "},"Á":{"ha":968,"x_min":36,"x_max":933,"o":"m 560 1242 q 597 1228 583 1242 q 611 1190 611 1214 q 597 1156 611 1171 l 501 1042 q 471 1026 489 1026 q 444 1037 454 1026 q 433 1064 433 1047 q 443 1090 433 1076 l 514 1215 q 560 1242 528 1242 m 926 83 q 933 56 933 67 q 916 11 933 29 q 871 -7 899 -7 q 811 32 828 -7 l 721 249 l 249 249 l 158 32 q 99 -7 142 -7 q 53 11 71 -7 q 36 56 36 29 q 43 83 36 67 l 397 919 q 478 976 422 976 l 492 976 q 572 919 547 976 l 926 83 m 297 364 l 672 364 l 485 815 l 297 364 z "},"Â":{"ha":968,"x_min":36,"x_max":933,"o":"m 672 1067 q 661 1038 674 1051 q 631 1025 649 1025 q 606 1035 615 1025 l 485 1138 l 364 1035 q 339 1025 354 1025 q 308 1038 321 1025 q 297 1067 296 1051 q 308 1093 297 1082 l 403 1190 q 458 1218 428 1218 l 511 1218 q 567 1190 542 1218 l 661 1093 q 672 1067 672 1082 m 926 83 q 933 56 933 67 q 916 11 933 29 q 871 -7 899 -7 q 811 32 828 -7 l 721 249 l 249 249 l 158 32 q 99 -7 142 -7 q 53 11 71 -7 q 36 56 36 29 q 43 83 36 67 l 397 919 q 478 976 422 976 l 492 976 q 572 919 547 976 l 926 83 m 297 364 l 672 364 l 485 815 l 297 364 z "},"Ã":{"ha":968,"x_min":36,"x_max":933,"o":"m 711 1167 q 678 1076 711 1118 q 594 1035 644 1035 q 484 1068 553 1035 q 381 1101 415 1101 q 326 1057 344 1101 q 294 1032 318 1032 q 272 1041 282 1032 q 263 1064 263 1050 q 296 1153 263 1110 q 379 1196 329 1196 q 488 1163 419 1196 q 593 1131 556 1131 q 644 1168 631 1131 q 679 1197 656 1197 q 711 1167 708 1197 m 926 83 q 933 56 933 67 q 916 11 933 29 q 871 -7 899 -7 q 811 32 828 -7 l 721 249 l 249 249 l 158 32 q 99 -7 142 -7 q 53 11 71 -7 q 36 56 36 29 q 43 83 36 67 l 397 919 q 478 976 422 976 l 492 976 q 572 919 547 976 l 926 83 m 297 364 l 672 364 l 485 815 l 297 364 z "},"Ä":{"ha":968,"x_min":36,"x_max":933,"o":"m 926 83 q 933 56 933 67 q 916 11 933 29 q 871 -7 899 -7 q 811 32 828 -7 l 721 249 l 249 249 l 158 32 q 99 -7 142 -7 q 53 11 71 -7 q 36 56 36 29 q 43 83 36 67 l 397 919 q 478 976 422 976 l 492 976 q 572 919 547 976 l 926 83 m 297 364 l 672 364 l 485 815 l 297 364 m 318 1158 q 328 1169 318 1158 q 368 1179 339 1179 q 418 1158 397 1179 q 439 1108 439 1138 q 418 1058 439 1079 q 368 1038 397 1038 q 318 1058 339 1038 q 297 1108 297 1079 q 318 1158 297 1138 m 553 1158 q 563 1169 553 1158 q 603 1179 574 1179 q 653 1158 632 1179 q 674 1108 674 1138 q 653 1058 674 1079 q 603 1038 632 1038 q 553 1058 574 1038 q 532 1108 532 1079 q 553 1158 532 1138 z "},"Å":{"ha":968,"x_min":36,"x_max":933,"o":"m 392 1237 q 411 1256 392 1237 q 485 1275 431 1275 q 577 1237 539 1275 q 615 1144 615 1199 q 577 1052 615 1090 q 485 1014 539 1014 q 392 1052 431 1014 q 354 1144 354 1090 q 392 1237 354 1199 m 437 1097 q 447 1086 437 1097 q 485 1076 457 1076 q 533 1097 513 1076 q 553 1144 553 1117 q 533 1192 553 1172 q 485 1213 513 1213 q 437 1192 457 1213 q 417 1144 417 1172 q 437 1097 417 1117 m 926 83 q 933 56 933 67 q 916 11 933 29 q 871 -7 899 -7 q 811 32 828 -7 l 721 249 l 249 249 l 158 32 q 99 -7 142 -7 q 53 11 71 -7 q 36 56 36 29 q 43 83 36 67 l 397 919 q 478 976 422 976 l 492 976 q 572 919 547 976 l 926 83 m 297 364 l 672 364 l 485 815 l 297 364 z "},"Æ":{"ha":1444,"x_min":3,"x_max":1372,"o":"m 1313 118 q 1355 101 1338 118 q 1372 58 1372 83 q 1355 17 1372 33 q 1313 0 1338 0 l 756 0 q 711 18 729 0 q 693 63 693 36 l 693 249 l 265 249 l 124 29 q 67 -7 100 -7 q 22 11 40 -7 q 3 56 3 29 q 17 94 3 74 l 571 935 q 635 969 594 969 l 1313 969 q 1355 952 1338 969 q 1372 910 1372 935 q 1355 868 1372 885 q 1313 851 1338 851 l 819 851 l 819 544 l 1263 544 q 1305 527 1288 544 q 1322 485 1322 510 q 1305 443 1322 460 q 1263 426 1288 426 l 819 426 l 819 118 l 1313 118 m 693 364 l 693 851 l 658 851 l 340 364 l 693 364 z "},"Ç":{"ha":969,"x_min":78,"x_max":911,"o":"m 576 -82 q 653 -109 624 -82 q 683 -179 683 -136 q 529 -307 683 -307 q 404 -271 463 -307 q 389 -247 389 -261 q 415 -219 389 -219 q 429 -224 421 -219 q 511 -247 472 -247 q 590 -183 590 -247 q 576 -151 590 -162 q 540 -140 563 -140 q 479 -156 510 -140 q 465 -160 471 -160 q 448 -153 456 -160 q 440 -137 440 -147 q 446 -118 440 -126 l 513 -11 q 199 139 319 6 q 78 485 78 272 q 215 848 78 713 q 564 983 351 983 q 881 897 728 983 q 911 847 910 882 q 897 808 913 825 q 856 792 881 792 q 831 797 842 792 q 576 863 707 863 q 301 757 399 863 q 204 485 204 651 q 301 213 204 318 q 576 107 399 107 q 831 172 707 107 q 856 178 842 178 q 897 161 881 178 q 911 122 913 144 q 881 72 910 88 q 571 -14 733 -12 l 529 -87 q 576 -82 551 -82 z "},"È":{"ha":886,"x_min":135,"x_max":814,"o":"m 754 118 q 797 101 779 118 q 814 58 814 83 q 797 17 814 33 q 754 0 779 0 l 197 0 q 153 18 171 0 q 135 63 135 36 l 135 906 q 153 951 135 932 q 197 969 171 969 l 754 969 q 797 952 779 969 q 814 910 814 935 q 797 868 814 885 q 754 851 779 851 l 261 851 l 261 544 l 704 544 q 747 527 729 544 q 764 485 764 510 q 747 443 764 460 q 704 426 729 426 l 261 426 l 261 118 l 754 118 m 401 1242 q 447 1215 433 1242 l 518 1090 q 528 1064 528 1075 q 517 1037 528 1047 q 490 1026 507 1026 q 460 1042 472 1026 l 364 1156 q 350 1190 350 1171 q 365 1228 350 1214 q 401 1242 379 1242 z "},"É":{"ha":886,"x_min":135,"x_max":814,"o":"m 754 118 q 797 101 779 118 q 814 58 814 83 q 797 17 814 33 q 754 0 779 0 l 197 0 q 153 18 171 0 q 135 63 135 36 l 135 906 q 153 951 135 932 q 197 969 171 969 l 754 969 q 797 952 779 969 q 814 910 814 935 q 797 868 814 885 q 754 851 779 851 l 261 851 l 261 544 l 704 544 q 747 527 729 544 q 764 485 764 510 q 747 443 764 460 q 704 426 729 426 l 261 426 l 261 118 l 754 118 m 546 1242 q 583 1228 569 1242 q 597 1190 597 1214 q 583 1156 597 1171 l 488 1042 q 457 1026 475 1026 q 430 1037 440 1026 q 419 1064 419 1047 q 429 1090 419 1076 l 500 1215 q 546 1242 514 1242 z "},"Ê":{"ha":886,"x_min":135,"x_max":814,"o":"m 754 118 q 797 101 779 118 q 814 58 814 83 q 797 17 814 33 q 754 0 779 0 l 197 0 q 153 18 171 0 q 135 63 135 36 l 135 906 q 153 951 135 932 q 197 969 171 969 l 754 969 q 797 952 779 969 q 814 910 814 935 q 797 868 814 885 q 754 851 779 851 l 261 851 l 261 544 l 704 544 q 747 527 729 544 q 764 485 764 510 q 747 443 764 460 q 704 426 729 426 l 261 426 l 261 118 l 754 118 m 672 1067 q 661 1038 674 1051 q 631 1025 649 1025 q 606 1035 615 1025 l 485 1138 l 364 1035 q 339 1025 354 1025 q 308 1038 321 1025 q 297 1067 296 1051 q 308 1093 297 1082 l 403 1190 q 458 1218 428 1218 l 511 1218 q 567 1190 542 1218 l 661 1093 q 672 1067 672 1082 z "},"Ë":{"ha":886,"x_min":135,"x_max":814,"o":"m 754 118 q 797 101 779 118 q 814 58 814 83 q 797 17 814 33 q 754 0 779 0 l 197 0 q 153 18 171 0 q 135 63 135 36 l 135 906 q 153 951 135 932 q 197 969 171 969 l 754 969 q 797 952 779 969 q 814 910 814 935 q 797 868 814 885 q 754 851 779 851 l 261 851 l 261 544 l 704 544 q 747 527 729 544 q 764 485 764 510 q 747 443 764 460 q 704 426 729 426 l 261 426 l 261 118 l 754 118 m 303 1158 q 313 1169 303 1158 q 353 1179 324 1179 q 403 1158 382 1179 q 424 1108 424 1138 q 403 1058 424 1079 q 353 1038 382 1038 q 303 1058 324 1038 q 282 1108 282 1079 q 303 1158 282 1138 m 538 1158 q 548 1169 538 1158 q 588 1179 558 1179 q 638 1158 617 1179 q 658 1108 658 1138 q 638 1058 658 1079 q 588 1038 617 1038 q 538 1058 558 1038 q 517 1108 517 1079 q 538 1158 517 1138 z "},"Ì":{"ha":396,"x_min":78,"x_max":261,"o":"m 153 958 q 162 967 153 958 q 197 976 171 976 q 242 958 224 976 q 261 913 261 939 l 261 56 q 242 11 261 29 q 197 -7 224 -7 q 153 11 171 -7 q 135 56 135 29 l 135 913 q 153 958 135 939 m 129 1242 q 175 1215 161 1242 l 246 1090 q 256 1064 256 1075 q 245 1037 256 1047 q 218 1026 235 1026 q 188 1042 200 1026 l 92 1156 q 78 1190 78 1171 q 92 1228 78 1214 q 129 1242 107 1242 z "},"Í":{"ha":396,"x_min":135,"x_max":318,"o":"m 153 958 q 162 967 153 958 q 197 976 171 976 q 242 958 224 976 q 261 913 261 939 l 261 56 q 242 11 261 29 q 197 -7 224 -7 q 153 11 171 -7 q 135 56 135 29 l 135 913 q 153 958 135 939 m 267 1242 q 303 1228 289 1242 q 318 1190 318 1214 q 304 1156 318 1171 l 208 1042 q 178 1026 196 1026 q 151 1037 161 1026 q 140 1064 140 1047 q 150 1090 140 1076 l 221 1215 q 267 1242 235 1242 z "},"Î":{"ha":396,"x_min":10,"x_max":385,"o":"m 153 958 q 162 967 153 958 q 197 976 171 976 q 242 958 224 976 q 261 913 261 939 l 261 56 q 242 11 261 29 q 197 -7 224 -7 q 153 11 171 -7 q 135 56 135 29 l 135 913 q 153 958 135 939 m 385 1067 q 374 1038 386 1051 q 343 1025 361 1025 q 318 1035 328 1025 l 197 1138 l 76 1035 q 51 1025 67 1025 q 21 1038 33 1025 q 10 1067 8 1051 q 21 1093 10 1082 l 115 1190 q 171 1218 140 1218 l 224 1218 q 279 1190 254 1218 l 374 1093 q 385 1067 385 1082 z "},"Ï":{"ha":396,"x_min":10,"x_max":386,"o":"m 153 958 q 162 967 153 958 q 197 976 171 976 q 242 958 224 976 q 261 913 261 939 l 261 56 q 242 11 261 29 q 197 -7 224 -7 q 153 11 171 -7 q 135 56 135 29 l 135 913 q 153 958 135 939 m 31 1158 q 41 1169 31 1158 q 81 1179 51 1179 q 131 1158 110 1179 q 151 1108 151 1138 q 131 1058 151 1079 q 81 1038 110 1038 q 31 1058 51 1038 q 10 1108 10 1079 q 31 1158 10 1138 m 265 1158 q 276 1169 265 1158 q 315 1179 286 1179 q 365 1158 344 1179 q 386 1108 386 1138 q 365 1058 386 1079 q 315 1038 344 1038 q 265 1058 286 1038 q 244 1108 244 1079 q 265 1158 244 1138 z "},"Ð":{"ha":1051,"x_min":24,"x_max":976,"o":"m 486 969 q 702 927 606 969 q 857 815 799 885 q 946 660 915 744 q 976 485 976 575 q 958 345 976 414 q 899 214 939 276 q 803 103 860 151 q 664 28 746 56 q 486 0 582 0 l 207 0 q 163 18 181 0 q 144 63 144 36 l 144 438 l 69 438 q 37 451 50 438 q 24 483 24 464 q 37 517 24 503 q 69 531 50 531 l 144 531 l 144 906 q 163 951 144 932 q 207 969 181 969 l 486 969 m 471 118 q 747 219 643 118 q 851 485 851 321 q 747 750 851 649 q 471 851 643 851 l 271 851 l 271 531 l 433 531 q 467 517 453 531 q 481 483 481 503 q 467 451 481 464 q 433 438 453 438 l 271 438 l 271 118 l 471 118 z "},"Ñ":{"ha":1115,"x_min":135,"x_max":981,"o":"m 872 958 q 881 967 872 958 q 917 976 890 976 q 962 958 943 976 q 981 913 981 939 l 981 83 q 953 19 981 46 q 889 -7 926 -7 l 872 -7 q 799 31 826 -7 l 261 807 l 261 56 q 242 11 261 29 q 197 -7 224 -7 q 153 11 171 -7 q 135 56 135 29 l 135 885 q 161 949 135 922 q 225 976 188 976 l 243 976 q 319 935 288 976 l 854 163 l 854 913 q 872 958 854 939 m 789 1167 q 756 1076 789 1118 q 672 1035 722 1035 q 562 1068 631 1035 q 458 1101 493 1101 q 404 1057 422 1101 q 372 1032 396 1032 q 350 1041 360 1032 q 340 1064 340 1050 q 374 1153 340 1110 q 457 1196 407 1196 q 565 1163 497 1196 q 671 1131 633 1131 q 722 1168 708 1131 q 757 1197 733 1197 q 789 1167 786 1197 z "},"Ò":{"ha":1126,"x_min":76,"x_max":1051,"o":"m 213 844 q 278 914 213 844 q 564 983 344 983 q 915 844 783 983 q 1051 485 1047 706 q 915 125 1047 264 q 564 -14 783 -14 q 213 125 344 -14 q 76 485 81 264 q 213 844 81 706 m 564 104 q 828 212 731 104 q 925 485 925 319 q 828 758 925 650 q 564 865 731 865 q 299 758 396 865 q 203 485 203 650 q 299 212 203 319 q 564 104 396 104 m 499 1242 q 544 1215 531 1242 l 615 1090 q 625 1064 625 1075 q 615 1037 625 1047 q 588 1026 604 1026 q 557 1042 569 1026 l 461 1156 q 447 1190 447 1171 q 462 1228 447 1214 q 499 1242 476 1242 z "},"Ó":{"ha":1126,"x_min":76,"x_max":1051,"o":"m 213 844 q 278 914 213 844 q 564 983 344 983 q 915 844 783 983 q 1051 485 1047 706 q 915 125 1047 264 q 564 -14 783 -14 q 213 125 344 -14 q 76 485 81 264 q 213 844 81 706 m 564 104 q 828 212 731 104 q 925 485 925 319 q 828 758 925 650 q 564 865 731 865 q 299 758 396 865 q 203 485 203 650 q 299 212 203 319 q 564 104 396 104 m 629 1242 q 667 1228 653 1242 q 681 1190 681 1214 q 667 1156 681 1171 l 571 1042 q 540 1026 558 1026 q 513 1037 524 1026 q 503 1064 503 1047 q 513 1090 503 1076 l 583 1215 q 629 1242 597 1242 z "},"Ô":{"ha":1126,"x_min":76,"x_max":1051,"o":"m 213 844 q 278 914 213 844 q 564 983 344 983 q 915 844 783 983 q 1051 485 1047 706 q 915 125 1047 264 q 564 -14 783 -14 q 213 125 344 -14 q 76 485 81 264 q 213 844 81 706 m 564 104 q 828 212 731 104 q 925 485 925 319 q 828 758 925 650 q 564 865 731 865 q 299 758 396 865 q 203 485 203 650 q 299 212 203 319 q 564 104 396 104 m 751 1067 q 740 1038 753 1051 q 710 1025 728 1025 q 685 1035 694 1025 l 564 1138 l 443 1035 q 418 1025 433 1025 q 388 1038 400 1025 q 376 1067 375 1051 q 388 1093 376 1082 l 482 1190 q 538 1218 507 1218 l 590 1218 q 646 1190 621 1218 l 740 1093 q 751 1067 751 1082 z "},"Õ":{"ha":1126,"x_min":76,"x_max":1051,"o":"m 213 844 q 278 914 213 844 q 564 983 344 983 q 915 844 783 983 q 1051 485 1047 706 q 915 125 1047 264 q 564 -14 783 -14 q 213 125 344 -14 q 76 485 81 264 q 213 844 81 706 m 564 104 q 828 212 731 104 q 925 485 925 319 q 828 758 925 650 q 564 865 731 865 q 299 758 396 865 q 203 485 203 650 q 299 212 203 319 q 564 104 396 104 m 789 1167 q 756 1076 789 1118 q 672 1035 722 1035 q 562 1068 631 1035 q 458 1101 493 1101 q 404 1057 422 1101 q 372 1032 396 1032 q 350 1041 360 1032 q 340 1064 340 1050 q 374 1153 340 1110 q 457 1196 407 1196 q 565 1163 497 1196 q 671 1131 633 1131 q 722 1168 708 1131 q 757 1197 733 1197 q 789 1167 786 1197 z "},"Ö":{"ha":1126,"x_min":76,"x_max":1051,"o":"m 213 844 q 278 914 213 844 q 564 983 344 983 q 915 844 783 983 q 1051 485 1047 706 q 915 125 1047 264 q 564 -14 783 -14 q 213 125 344 -14 q 76 485 81 264 q 213 844 81 706 m 564 104 q 828 212 731 104 q 925 485 925 319 q 828 758 925 650 q 564 865 731 865 q 299 758 396 865 q 203 485 203 650 q 299 212 203 319 q 564 104 396 104 m 397 1158 q 408 1169 397 1158 q 447 1179 418 1179 q 497 1158 476 1179 q 518 1108 518 1138 q 497 1058 518 1079 q 447 1038 476 1038 q 397 1058 418 1038 q 376 1108 376 1079 q 397 1158 376 1138 m 632 1158 q 642 1169 632 1158 q 682 1179 653 1179 q 732 1158 711 1179 q 753 1108 753 1138 q 732 1058 753 1079 q 682 1038 711 1038 q 632 1058 653 1038 q 611 1108 611 1079 q 632 1158 611 1138 z "},"×":{"ha":782,"x_min":82,"x_max":699,"o":"m 135 667 q 172 650 156 667 l 390 432 l 608 650 q 646 667 625 667 q 683 651 668 667 q 699 614 699 635 q 682 576 699 593 l 464 358 l 682 140 q 699 103 699 124 q 683 66 699 82 q 646 50 668 50 q 608 67 625 50 l 390 285 l 172 67 q 135 50 156 50 q 97 66 113 50 q 82 103 82 82 q 99 140 82 124 l 317 358 l 99 576 q 82 614 82 593 q 97 651 82 635 q 135 667 113 667 z "},"Ø":{"ha":1126,"x_min":76,"x_max":1051,"o":"m 564 983 q 825 915 711 983 l 881 996 q 910 1010 890 1010 q 935 1000 925 1010 q 944 976 944 990 q 936 953 944 965 l 882 875 q 1051 485 1044 738 q 915 125 1047 264 q 564 -14 783 -14 q 304 51 417 -14 l 249 -28 q 219 -42 239 -42 q 194 -32 204 -42 q 185 -8 185 -22 q 193 15 185 3 l 247 92 q 76 485 81 231 q 213 844 81 706 q 564 983 344 983 m 203 485 q 318 193 203 300 l 754 817 q 564 865 671 865 q 299 758 396 865 q 203 485 203 650 m 564 104 q 828 212 731 104 q 925 485 925 319 q 811 775 925 668 l 374 151 q 564 104 456 104 z "},"Ù":{"ha":1053,"x_min":128,"x_max":925,"o":"m 817 958 q 826 967 817 958 q 861 976 835 976 q 906 958 888 976 q 925 913 925 939 l 925 364 q 890 195 925 269 q 795 76 854 121 q 667 9 736 32 q 526 -14 599 -14 q 385 9 454 -14 q 258 76 317 32 q 163 195 199 121 q 128 364 128 269 l 128 913 q 146 958 128 939 q 190 976 164 976 q 235 958 217 976 q 254 913 254 939 l 254 360 q 335 169 254 238 q 526 101 415 101 q 718 169 638 101 q 799 360 799 238 l 799 913 q 817 958 799 939 m 469 1242 q 515 1215 501 1242 l 586 1090 q 596 1064 596 1075 q 585 1037 596 1047 q 558 1026 575 1026 q 528 1042 540 1026 l 432 1156 q 418 1190 418 1171 q 433 1228 418 1214 q 469 1242 447 1242 z "},"Ú":{"ha":1053,"x_min":128,"x_max":925,"o":"m 817 958 q 826 967 817 958 q 861 976 835 976 q 906 958 888 976 q 925 913 925 939 l 925 364 q 890 195 925 269 q 795 76 854 121 q 667 9 736 32 q 526 -14 599 -14 q 385 9 454 -14 q 258 76 317 32 q 163 195 199 121 q 128 364 128 269 l 128 913 q 146 958 128 939 q 190 976 164 976 q 235 958 217 976 q 254 913 254 939 l 254 360 q 335 169 254 238 q 526 101 415 101 q 718 169 638 101 q 799 360 799 238 l 799 913 q 817 958 799 939 m 583 1242 q 620 1228 606 1242 q 635 1190 635 1214 q 621 1156 635 1171 l 525 1042 q 494 1026 513 1026 q 467 1037 478 1026 q 457 1064 457 1047 q 467 1090 457 1076 l 538 1215 q 583 1242 551 1242 z "},"Û":{"ha":1053,"x_min":128,"x_max":925,"o":"m 817 958 q 826 967 817 958 q 861 976 835 976 q 906 958 888 976 q 925 913 925 939 l 925 364 q 890 195 925 269 q 795 76 854 121 q 667 9 736 32 q 526 -14 599 -14 q 385 9 454 -14 q 258 76 317 32 q 163 195 199 121 q 128 364 128 269 l 128 913 q 146 958 128 939 q 190 976 164 976 q 235 958 217 976 q 254 913 254 939 l 254 360 q 335 169 254 238 q 526 101 415 101 q 718 169 638 101 q 799 360 799 238 l 799 913 q 817 958 799 939 m 714 1067 q 703 1038 715 1051 q 672 1025 690 1025 q 647 1035 657 1025 l 526 1138 l 406 1035 q 381 1025 396 1025 q 350 1038 363 1025 q 339 1067 338 1051 q 350 1093 339 1082 l 444 1190 q 500 1218 469 1218 l 553 1218 q 608 1190 583 1218 l 703 1093 q 714 1067 714 1082 z "},"Ü":{"ha":1053,"x_min":128,"x_max":925,"o":"m 817 958 q 826 967 817 958 q 861 976 835 976 q 906 958 888 976 q 925 913 925 939 l 925 364 q 890 195 925 269 q 795 76 854 121 q 667 9 736 32 q 526 -14 599 -14 q 385 9 454 -14 q 258 76 317 32 q 163 195 199 121 q 128 364 128 269 l 128 913 q 146 958 128 939 q 190 976 164 976 q 235 958 217 976 q 254 913 254 939 l 254 360 q 335 169 254 238 q 526 101 415 101 q 718 169 638 101 q 799 360 799 238 l 799 913 q 817 958 799 939 m 360 1158 q 370 1169 360 1158 q 410 1179 381 1179 q 460 1158 439 1179 q 481 1108 481 1138 q 460 1058 481 1079 q 410 1038 439 1038 q 360 1058 381 1038 q 339 1108 339 1079 q 360 1158 339 1138 m 594 1158 q 605 1169 594 1158 q 644 1179 615 1179 q 694 1158 674 1179 q 715 1108 715 1138 q 694 1058 715 1079 q 644 1038 674 1038 q 594 1058 615 1038 q 574 1108 574 1079 q 594 1158 574 1138 z "},"Ý":{"ha":896,"x_min":42,"x_max":856,"o":"m 449 522 l 739 944 q 794 976 760 976 q 839 958 821 976 q 856 913 857 939 q 844 875 856 893 l 511 410 l 511 56 q 493 11 511 29 q 449 -7 475 -7 q 403 11 422 -7 q 385 56 385 29 l 385 410 l 53 875 q 42 913 42 893 q 58 958 40 939 q 103 976 76 976 q 158 944 138 976 l 449 522 m 518 1242 q 556 1228 542 1242 q 569 1190 569 1214 q 556 1156 569 1171 l 460 1042 q 429 1026 447 1026 q 402 1037 413 1026 q 392 1064 392 1047 q 401 1090 392 1075 l 472 1215 q 518 1242 486 1242 z "},"Þ":{"ha":932,"x_min":135,"x_max":885,"o":"m 514 814 q 689 787 614 814 q 805 714 764 760 q 865 616 846 668 q 885 506 885 564 q 865 395 885 447 q 805 297 846 343 q 689 224 764 251 q 514 197 614 197 l 261 197 l 261 56 q 242 11 261 29 q 197 -7 224 -7 q 153 11 171 -7 q 135 56 135 29 l 135 913 q 153 958 135 939 q 197 976 171 976 q 242 958 224 976 q 261 913 261 939 l 261 814 l 514 814 m 501 317 q 701 371 643 317 q 758 506 758 425 q 701 640 758 586 q 501 694 643 694 l 261 694 l 261 317 l 501 317 z "},"ß":{"ha":847,"x_min":110,"x_max":782,"o":"m 575 489 q 644 464 611 481 q 710 419 678 447 q 763 346 743 392 q 782 242 782 300 q 704 53 782 119 q 518 -14 626 -14 q 364 10 432 -14 q 319 63 319 25 q 335 101 319 86 q 374 117 350 117 q 394 113 383 117 q 497 99 436 99 q 604 135 553 99 q 656 257 656 171 q 588 383 656 336 q 417 429 521 429 q 378 443 392 429 q 364 481 364 457 q 378 515 364 501 q 417 532 393 529 q 551 586 501 542 q 601 697 601 631 q 553 820 601 775 q 422 865 506 865 q 289 819 342 865 q 236 660 236 772 l 236 57 q 217 13 236 31 q 172 -6 199 -6 q 128 13 146 -6 q 110 57 110 31 l 110 675 q 196 902 110 821 q 424 983 282 983 q 635 913 543 983 q 728 711 728 843 q 575 489 728 538 z "},"à":{"ha":771,"x_min":53,"x_max":667,"o":"m 376 722 q 593 642 519 722 q 667 449 667 561 l 667 56 q 648 11 667 29 q 603 -7 629 -7 q 558 11 576 -7 q 540 56 540 29 l 540 92 q 279 -14 438 -14 q 119 43 185 -14 q 53 194 53 100 q 134 358 53 297 q 372 419 215 419 l 540 419 l 540 431 q 495 563 540 522 q 354 603 450 603 q 169 569 272 603 q 151 567 158 567 q 115 582 131 567 q 100 619 100 597 q 136 672 100 657 q 376 722 254 722 m 326 97 q 444 127 388 97 q 540 201 501 157 l 540 318 l 389 318 q 179 208 179 318 q 326 97 179 97 m 314 1003 q 360 976 346 1003 l 431 851 q 440 825 440 836 q 430 798 440 808 q 403 788 419 788 q 372 803 385 788 l 276 917 q 263 951 263 932 q 277 989 263 975 q 314 1003 292 1003 z "},"á":{"ha":771,"x_min":53,"x_max":667,"o":"m 376 722 q 593 642 519 722 q 667 449 667 561 l 667 56 q 648 11 667 29 q 603 -7 629 -7 q 558 11 576 -7 q 540 56 540 29 l 540 92 q 279 -14 438 -14 q 119 43 185 -14 q 53 194 53 100 q 134 358 53 297 q 372 419 215 419 l 540 419 l 540 431 q 495 563 540 522 q 354 603 450 603 q 169 569 272 603 q 151 567 158 567 q 115 582 131 567 q 100 619 100 597 q 136 672 100 657 q 376 722 254 722 m 326 97 q 444 127 388 97 q 540 201 501 157 l 540 318 l 389 318 q 179 208 179 318 q 326 97 179 97 m 438 1003 q 475 989 461 1003 q 489 951 489 975 q 475 917 489 932 l 379 803 q 349 788 367 788 q 322 798 332 788 q 311 825 311 808 q 321 851 311 836 l 392 976 q 438 1003 406 1003 z "},"â":{"ha":771,"x_min":53,"x_max":667,"o":"m 376 722 q 593 642 519 722 q 667 449 667 561 l 667 56 q 648 11 667 29 q 603 -7 629 -7 q 558 11 576 -7 q 540 56 540 29 l 540 92 q 279 -14 438 -14 q 119 43 185 -14 q 53 194 53 100 q 134 358 53 297 q 372 419 215 419 l 540 419 l 540 431 q 495 563 540 522 q 354 603 450 603 q 169 569 272 603 q 151 567 158 567 q 115 582 131 567 q 100 619 100 597 q 136 672 100 657 q 376 722 254 722 m 326 97 q 444 127 388 97 q 540 201 501 157 l 540 318 l 389 318 q 179 208 179 318 q 326 97 179 97 m 567 828 q 556 799 568 813 q 525 786 543 786 q 500 796 510 786 l 379 899 l 258 796 q 233 786 249 786 q 203 799 215 786 q 192 828 190 813 q 203 854 192 843 l 297 951 q 353 979 322 979 l 406 979 q 461 951 436 979 l 556 854 q 567 828 567 843 z "},"ã":{"ha":771,"x_min":53,"x_max":667,"o":"m 376 722 q 593 642 519 722 q 667 449 667 561 l 667 56 q 648 11 667 29 q 603 -7 629 -7 q 558 11 576 -7 q 540 56 540 29 l 540 92 q 279 -14 438 -14 q 119 43 185 -14 q 53 194 53 100 q 134 358 53 297 q 372 419 215 419 l 540 419 l 540 431 q 495 563 540 522 q 354 603 450 603 q 169 569 272 603 q 151 567 158 567 q 115 582 131 567 q 100 619 100 597 q 136 672 100 657 q 376 722 254 722 m 326 97 q 444 127 388 97 q 540 201 501 157 l 540 318 l 389 318 q 179 208 179 318 q 326 97 179 97 m 600 928 q 567 838 600 879 q 483 796 533 796 q 373 829 442 796 q 269 863 304 863 q 215 818 233 863 q 183 793 207 793 q 161 802 171 793 q 151 825 151 811 q 185 914 151 871 q 268 957 218 957 q 376 924 308 957 q 482 892 444 892 q 533 929 519 892 q 568 958 544 958 q 600 928 597 958 z "},"ä":{"ha":771,"x_min":53,"x_max":667,"o":"m 376 722 q 593 642 519 722 q 667 449 667 561 l 667 56 q 648 11 667 29 q 603 -7 629 -7 q 558 11 576 -7 q 540 56 540 29 l 540 92 q 279 -14 438 -14 q 119 43 185 -14 q 53 194 53 100 q 134 358 53 297 q 372 419 215 419 l 540 419 l 540 431 q 495 563 540 522 q 354 603 450 603 q 169 569 272 603 q 151 567 158 567 q 115 582 131 567 q 100 619 100 597 q 136 672 100 657 q 376 722 254 722 m 326 97 q 444 127 388 97 q 540 201 501 157 l 540 318 l 389 318 q 179 208 179 318 q 326 97 179 97 m 214 919 q 224 930 214 919 q 264 940 235 940 q 314 919 293 940 q 335 869 335 899 q 314 819 335 840 q 264 799 293 799 q 214 819 235 799 q 193 869 193 840 q 214 919 193 899 m 449 919 q 459 930 449 919 q 499 940 469 940 q 549 919 528 940 q 569 869 569 899 q 549 819 569 840 q 499 799 528 799 q 449 819 469 799 q 428 869 428 840 q 449 919 428 899 z "},"å":{"ha":771,"x_min":53,"x_max":667,"o":"m 376 722 q 593 642 519 722 q 667 449 667 561 l 667 56 q 648 11 667 29 q 603 -7 629 -7 q 558 11 576 -7 q 540 56 540 29 l 540 92 q 279 -14 438 -14 q 119 43 185 -14 q 53 194 53 100 q 134 358 53 297 q 372 419 215 419 l 540 419 l 540 431 q 495 563 540 522 q 354 603 450 603 q 169 569 272 603 q 151 567 158 567 q 115 582 131 567 q 100 619 100 597 q 136 672 100 657 q 376 722 254 722 m 326 97 q 444 127 388 97 q 540 201 501 157 l 540 318 l 389 318 q 179 208 179 318 q 326 97 179 97 m 281 988 q 300 1007 281 988 q 374 1026 319 1026 q 466 988 428 1026 q 504 896 504 950 q 466 803 504 842 q 374 765 428 765 q 281 803 319 765 q 243 896 243 842 q 281 988 243 950 m 326 848 q 336 838 326 848 q 374 828 346 828 q 422 848 401 828 q 442 896 442 868 q 422 944 442 924 q 374 964 401 964 q 326 944 346 964 q 306 896 306 924 q 326 848 306 868 z "},"æ":{"ha":1256,"x_min":51,"x_max":1196,"o":"m 1196 374 q 1179 332 1196 350 q 1135 314 1163 314 l 657 314 q 903 104 681 104 q 1090 147 1007 104 q 1115 153 1101 153 q 1154 138 1138 153 q 1171 99 1171 122 q 1135 47 1171 68 q 892 -14 1028 -14 q 610 107 703 -14 q 324 -14 531 -14 q 130 43 208 -14 q 51 194 51 100 q 133 356 51 296 q 371 415 214 415 l 539 415 l 539 431 q 494 563 539 522 q 353 603 449 603 q 168 569 271 603 q 150 567 157 567 q 114 582 129 567 q 99 619 99 597 q 135 672 99 657 q 375 722 253 722 q 613 606 542 722 q 864 722 700 722 q 1106 624 1017 722 q 1196 374 1196 526 m 539 235 l 539 314 l 388 314 q 178 208 178 314 q 223 129 178 161 q 349 97 268 97 q 483 128 428 97 q 539 235 539 158 m 657 415 l 1071 415 q 1003 565 1065 515 q 864 615 940 615 q 725 565 788 615 q 657 415 663 515 z "},"ç":{"ha":746,"x_min":64,"x_max":689,"o":"m 443 -82 q 520 -109 490 -82 q 550 -179 550 -136 q 396 -307 550 -307 q 271 -271 329 -307 q 256 -247 256 -261 q 282 -219 256 -219 q 296 -224 288 -219 q 378 -247 339 -247 q 457 -183 457 -247 q 443 -151 457 -162 q 407 -140 429 -140 q 346 -156 376 -140 q 332 -160 338 -160 q 315 -153 322 -160 q 307 -137 307 -147 q 313 -118 307 -126 l 379 -10 q 153 105 243 8 q 64 354 64 201 q 172 622 64 522 q 435 722 281 722 q 661 656 558 722 q 689 607 689 638 q 673 569 689 586 q 636 551 657 551 q 606 560 621 551 q 446 604 519 604 q 258 535 326 604 q 190 354 190 467 q 258 173 190 242 q 446 104 326 104 q 606 149 519 104 q 636 157 621 157 q 673 140 657 157 q 689 101 689 122 q 661 53 689 71 q 438 -14 561 -12 l 396 -87 q 443 -82 418 -82 z "},"è":{"ha":792,"x_min":68,"x_max":731,"o":"m 651 153 q 690 138 674 153 q 707 99 707 122 q 671 47 707 68 q 428 -14 564 -14 q 163 83 258 -14 q 68 354 68 179 q 153 615 68 508 q 400 722 238 722 q 642 620 554 722 q 731 372 731 518 q 713 328 731 346 q 667 310 696 310 l 196 310 q 268 158 207 213 q 439 104 329 104 q 626 147 543 104 q 651 153 638 153 m 538 564 q 507 590 538 564 q 400 615 476 615 q 263 564 324 615 q 196 413 201 513 l 606 413 q 538 564 600 513 m 342 1003 q 388 976 374 1003 l 458 851 q 468 825 468 836 q 458 798 468 808 q 431 788 447 788 q 400 803 413 788 l 304 917 q 290 951 290 932 q 305 989 290 975 q 342 1003 319 1003 z "},"é":{"ha":792,"x_min":68,"x_max":731,"o":"m 651 153 q 690 138 674 153 q 707 99 707 122 q 671 47 707 68 q 428 -14 564 -14 q 163 83 258 -14 q 68 354 68 179 q 153 615 68 508 q 400 722 238 722 q 642 620 554 722 q 731 372 731 518 q 713 328 731 346 q 667 310 696 310 l 196 310 q 268 158 207 213 q 439 104 329 104 q 626 147 543 104 q 651 153 638 153 m 538 564 q 507 590 538 564 q 400 615 476 615 q 263 564 324 615 q 196 413 201 513 l 606 413 q 538 564 600 513 m 457 1003 q 494 989 481 1003 q 508 951 508 975 q 494 917 508 932 l 399 803 q 368 788 386 788 q 341 798 351 788 q 331 825 331 808 q 340 851 331 836 l 411 976 q 457 1003 425 1003 z "},"ê":{"ha":792,"x_min":68,"x_max":731,"o":"m 651 153 q 690 138 674 153 q 707 99 707 122 q 671 47 707 68 q 428 -14 564 -14 q 163 83 258 -14 q 68 354 68 179 q 153 615 68 508 q 400 722 238 722 q 642 620 554 722 q 731 372 731 518 q 713 328 731 346 q 667 310 696 310 l 196 310 q 268 158 207 213 q 439 104 329 104 q 626 147 543 104 q 651 153 638 153 m 538 564 q 507 590 538 564 q 400 615 476 615 q 263 564 324 615 q 196 413 201 513 l 606 413 q 538 564 600 513 m 586 828 q 575 799 588 813 q 544 786 563 786 q 519 796 529 786 l 399 899 l 278 796 q 253 786 268 786 q 222 799 235 786 q 211 828 210 813 q 222 854 211 843 l 317 951 q 372 979 342 979 l 425 979 q 481 951 456 979 l 575 854 q 586 828 586 843 z "},"ë":{"ha":792,"x_min":68,"x_max":731,"o":"m 651 153 q 690 138 674 153 q 707 99 707 122 q 671 47 707 68 q 428 -14 564 -14 q 163 83 258 -14 q 68 354 68 179 q 153 615 68 508 q 400 722 238 722 q 642 620 554 722 q 731 372 731 518 q 713 328 731 346 q 667 310 696 310 l 196 310 q 268 158 207 213 q 439 104 329 104 q 626 147 543 104 q 651 153 638 153 m 538 564 q 507 590 538 564 q 400 615 476 615 q 263 564 324 615 q 196 413 201 513 l 606 413 q 538 564 600 513 m 232 919 q 242 930 232 919 q 282 940 253 940 q 332 919 311 940 q 353 869 353 899 q 332 819 353 840 q 282 799 311 799 q 232 819 253 799 q 211 869 211 840 q 232 919 211 899 m 467 919 q 477 930 467 919 q 517 940 488 940 q 567 919 546 940 q 588 869 588 899 q 567 819 588 840 q 517 799 546 799 q 467 819 488 799 q 446 869 446 840 q 467 919 446 899 z "},"ì":{"ha":357,"x_min":58,"x_max":242,"o":"m 178 715 q 224 697 206 715 q 242 651 242 678 l 242 56 q 223 11 242 29 q 178 -7 204 -7 q 133 11 151 -7 q 115 56 115 29 l 115 651 q 133 697 115 678 q 178 715 151 715 m 110 1003 q 156 976 142 1003 l 226 851 q 236 825 236 836 q 226 798 236 808 q 199 788 215 788 q 168 803 181 788 l 72 917 q 58 951 58 932 q 72 989 58 975 q 110 1003 86 1003 z "},"í":{"ha":357,"x_min":115,"x_max":299,"o":"m 178 715 q 224 697 206 715 q 242 651 242 678 l 242 56 q 223 11 242 29 q 178 -7 204 -7 q 133 11 151 -7 q 115 56 115 29 l 115 651 q 133 697 115 678 q 178 715 151 715 m 247 1003 q 284 989 269 1003 q 299 951 299 975 q 285 917 299 932 l 189 803 q 158 788 176 788 q 131 798 142 788 q 121 825 121 808 q 131 851 121 836 l 201 976 q 247 1003 215 1003 z "},"î":{"ha":357,"x_min":-10,"x_max":365,"o":"m 178 715 q 224 697 206 715 q 242 651 242 678 l 242 56 q 223 11 242 29 q 178 -7 204 -7 q 133 11 151 -7 q 115 56 115 29 l 115 651 q 133 697 115 678 q 178 715 151 715 m 365 828 q 354 799 367 813 q 324 786 342 786 q 299 796 308 786 l 178 899 l 57 796 q 32 786 47 786 q 1 799 14 786 q -10 828 -11 813 q 1 854 -10 843 l 96 951 q 151 979 121 979 l 204 979 q 260 951 235 979 l 354 854 q 365 828 365 843 z "},"ï":{"ha":357,"x_min":-10,"x_max":367,"o":"m 178 715 q 224 697 206 715 q 242 651 242 678 l 242 56 q 223 11 242 29 q 178 -7 204 -7 q 133 11 151 -7 q 115 56 115 29 l 115 651 q 133 697 115 678 q 178 715 151 715 m 11 919 q 22 930 11 919 q 61 940 32 940 q 111 919 90 940 q 132 869 132 899 q 111 819 132 840 q 61 799 90 799 q 11 819 32 799 q -10 869 -10 840 q 11 919 -10 899 m 246 919 q 256 930 246 919 q 296 940 267 940 q 346 919 325 940 q 367 869 367 899 q 346 819 367 840 q 296 799 325 799 q 246 819 267 799 q 225 869 225 840 q 246 919 225 899 z "},"ð":{"ha":832,"x_min":68,"x_max":758,"o":"m 503 885 q 758 381 758 654 q 674 97 758 207 q 413 -14 589 -14 q 163 85 257 -14 q 68 344 68 183 q 156 597 68 492 q 393 701 243 701 q 550 663 475 701 q 401 825 493 747 l 285 757 q 261 749 271 749 q 237 759 247 749 q 226 783 226 769 q 247 815 226 804 l 342 871 q 236 938 272 918 q 208 986 208 951 q 226 1028 208 1011 q 267 1044 243 1044 q 297 1036 283 1044 q 447 932 381 985 l 542 989 q 563 996 553 996 q 588 985 578 996 q 597 961 597 975 q 581 931 597 942 l 503 885 m 257 160 q 290 129 257 160 q 413 97 324 97 q 569 160 501 97 q 636 350 636 224 q 569 537 636 475 q 413 599 501 599 q 257 537 324 599 q 190 350 190 475 q 257 160 190 224 z "},"ñ":{"ha":846,"x_min":110,"x_max":743,"o":"m 494 722 q 676 644 610 722 q 743 450 743 567 l 743 56 q 724 11 743 29 q 679 -7 706 -7 q 635 11 653 -7 q 617 56 617 29 l 617 436 q 464 606 617 606 q 236 472 343 606 l 236 56 q 217 11 236 29 q 172 -7 199 -7 q 128 11 146 -7 q 110 56 110 29 l 110 651 q 128 697 110 678 q 172 715 146 715 q 217 697 199 715 q 236 651 236 678 l 236 594 q 494 722 353 722 m 656 928 q 622 838 656 879 q 539 796 589 796 q 428 829 497 796 q 325 863 360 863 q 271 818 289 863 q 239 793 263 793 q 217 802 226 793 q 207 825 207 811 q 240 914 207 871 q 324 957 274 957 q 432 924 364 957 q 538 892 500 892 q 589 929 575 892 q 624 958 600 958 q 656 928 653 958 z "},"ò":{"ha":844,"x_min":67,"x_max":778,"o":"m 422 722 q 680 621 582 722 q 778 354 778 519 q 680 88 778 189 q 422 -14 582 -14 q 164 88 261 -14 q 67 354 67 189 q 164 621 67 519 q 422 722 261 722 m 262 165 q 296 133 262 165 q 422 101 331 101 q 583 165 514 101 q 651 356 651 228 q 583 544 651 482 q 422 607 514 607 q 262 544 331 607 q 193 356 193 482 q 262 165 193 228 m 354 1003 q 400 976 386 1003 l 471 851 q 481 825 481 836 q 470 798 481 808 q 443 788 460 788 q 413 803 425 788 l 317 917 q 303 951 303 932 q 317 989 303 975 q 354 1003 332 1003 z "},"ó":{"ha":844,"x_min":67,"x_max":778,"o":"m 422 722 q 680 621 582 722 q 778 354 778 519 q 680 88 778 189 q 422 -14 582 -14 q 164 88 261 -14 q 67 354 67 189 q 164 621 67 519 q 422 722 261 722 m 262 165 q 296 133 262 165 q 422 101 331 101 q 583 165 514 101 q 651 356 651 228 q 583 544 651 482 q 422 607 514 607 q 262 544 331 607 q 193 356 193 482 q 262 165 193 228 m 490 1003 q 528 989 514 1003 q 542 951 542 975 q 528 917 542 932 l 432 803 q 401 788 419 788 q 374 798 385 788 q 364 825 364 808 q 374 851 364 836 l 444 976 q 490 1003 458 1003 z "},"ô":{"ha":844,"x_min":67,"x_max":778,"o":"m 422 722 q 680 621 582 722 q 778 354 778 519 q 680 88 778 189 q 422 -14 582 -14 q 164 88 261 -14 q 67 354 67 189 q 164 621 67 519 q 422 722 261 722 m 262 165 q 296 133 262 165 q 422 101 331 101 q 583 165 514 101 q 651 356 651 228 q 583 544 651 482 q 422 607 514 607 q 262 544 331 607 q 193 356 193 482 q 262 165 193 228 m 610 828 q 599 799 611 813 q 568 786 586 786 q 543 796 553 786 l 422 899 l 301 796 q 276 786 292 786 q 246 799 258 786 q 235 828 233 813 q 246 854 235 843 l 340 951 q 396 979 365 979 l 449 979 q 504 951 479 979 l 599 854 q 610 828 610 843 z "},"õ":{"ha":844,"x_min":67,"x_max":778,"o":"m 422 722 q 680 621 582 722 q 778 354 778 519 q 680 88 778 189 q 422 -14 582 -14 q 164 88 261 -14 q 67 354 67 189 q 164 621 67 519 q 422 722 261 722 m 262 165 q 296 133 262 165 q 422 101 331 101 q 583 165 514 101 q 651 356 651 228 q 583 544 651 482 q 422 607 514 607 q 262 544 331 607 q 193 356 193 482 q 262 165 193 228 m 649 928 q 615 838 649 879 q 532 796 582 796 q 422 829 490 796 q 318 863 353 863 q 264 818 282 863 q 232 793 256 793 q 210 802 219 793 q 200 825 200 811 q 233 914 200 871 q 317 957 267 957 q 426 924 358 957 q 531 892 494 892 q 582 929 568 892 q 617 958 593 958 q 649 928 646 958 z "},"ö":{"ha":844,"x_min":67,"x_max":778,"o":"m 422 722 q 680 621 582 722 q 778 354 778 519 q 680 88 778 189 q 422 -14 582 -14 q 164 88 261 -14 q 67 354 67 189 q 164 621 67 519 q 422 722 261 722 m 262 165 q 296 133 262 165 q 422 101 331 101 q 583 165 514 101 q 651 356 651 228 q 583 544 651 482 q 422 607 514 607 q 262 544 331 607 q 193 356 193 482 q 262 165 193 228 m 256 919 q 266 930 256 919 q 306 940 276 940 q 356 919 335 940 q 376 869 376 899 q 356 819 376 840 q 306 799 335 799 q 256 819 276 799 q 235 869 235 840 q 256 919 235 899 m 490 919 q 501 930 490 919 q 540 940 511 940 q 590 919 569 940 q 611 869 611 899 q 590 819 611 840 q 540 799 569 799 q 490 819 511 799 q 469 869 469 840 q 490 919 469 899 z "},"÷":{"ha":989,"x_min":101,"x_max":888,"o":"m 444 253 q 455 263 444 253 q 494 274 465 274 q 544 253 524 274 q 565 203 565 232 q 544 153 565 174 q 494 132 524 132 q 444 153 465 132 q 424 203 424 174 q 444 253 424 232 m 544 667 q 534 656 544 667 q 494 646 524 646 q 444 667 465 646 q 424 717 424 688 q 444 767 424 746 q 494 788 465 788 q 544 767 524 788 q 565 717 565 746 q 544 667 565 688 m 831 517 q 871 500 854 517 q 888 460 888 483 q 871 420 888 436 q 831 404 854 404 l 157 404 q 117 420 133 404 q 101 460 101 436 q 117 500 101 483 q 157 517 133 517 l 831 517 z "},"ø":{"ha":844,"x_min":67,"x_max":778,"o":"m 422 722 q 606 678 521 722 l 646 735 q 675 749 656 749 q 700 739 690 749 q 710 715 710 729 q 701 692 710 704 l 663 636 q 778 354 778 536 q 680 88 778 189 q 422 -14 582 -14 q 238 31 318 -14 l 196 -29 q 167 -43 186 -43 q 142 -33 151 -43 q 132 -10 132 -24 q 140 14 132 1 l 181 71 q 67 354 67 174 q 164 621 67 519 q 422 722 261 722 m 193 356 q 253 174 193 240 l 536 578 q 422 607 482 607 q 262 544 331 607 q 193 356 193 482 m 422 101 q 583 165 514 101 q 651 356 651 228 q 592 535 651 465 l 308 131 q 422 101 358 101 z "},"ù":{"ha":847,"x_min":104,"x_max":738,"o":"m 353 -14 q 171 64 238 -14 q 104 258 104 142 l 104 653 q 123 697 104 679 q 168 715 142 715 q 213 697 194 715 q 231 653 231 679 l 231 272 q 383 103 231 103 q 611 236 504 103 l 611 653 q 630 697 611 679 q 675 715 649 715 q 719 697 701 715 q 738 653 738 679 l 738 57 q 719 12 738 31 q 675 -7 701 -7 q 630 12 649 -7 q 611 57 611 31 l 611 114 q 353 -14 494 -14 m 353 1003 q 399 976 385 1003 l 469 851 q 479 825 479 836 q 469 798 479 808 q 442 788 458 788 q 411 803 424 788 l 315 917 q 301 951 301 932 q 316 989 301 975 q 353 1003 331 1003 z "},"ú":{"ha":847,"x_min":104,"x_max":738,"o":"m 353 -14 q 171 64 238 -14 q 104 258 104 142 l 104 653 q 123 697 104 679 q 168 715 142 715 q 213 697 194 715 q 231 653 231 679 l 231 272 q 383 103 231 103 q 611 236 504 103 l 611 653 q 630 697 611 679 q 675 715 649 715 q 719 697 701 715 q 738 653 738 679 l 738 57 q 719 12 738 31 q 675 -7 701 -7 q 630 12 649 -7 q 611 57 611 31 l 611 114 q 353 -14 494 -14 m 489 1003 q 526 989 511 1003 q 540 951 540 975 q 526 917 540 932 l 431 803 q 400 788 418 788 q 373 798 383 788 q 363 825 363 808 q 372 851 363 836 l 443 976 q 489 1003 457 1003 z "},"û":{"ha":847,"x_min":104,"x_max":738,"o":"m 353 -14 q 171 64 238 -14 q 104 258 104 142 l 104 653 q 123 697 104 679 q 168 715 142 715 q 213 697 194 715 q 231 653 231 679 l 231 272 q 383 103 231 103 q 611 236 504 103 l 611 653 q 630 697 611 679 q 675 715 649 715 q 719 697 701 715 q 738 653 738 679 l 738 57 q 719 12 738 31 q 675 -7 701 -7 q 630 12 649 -7 q 611 57 611 31 l 611 114 q 353 -14 494 -14 m 608 828 q 597 799 610 813 q 567 786 585 786 q 542 796 551 786 l 421 899 l 300 796 q 275 786 290 786 q 244 799 257 786 q 233 828 232 813 q 244 854 233 843 l 339 951 q 394 979 364 979 l 447 979 q 503 951 478 979 l 597 854 q 608 828 608 843 z "},"ü":{"ha":847,"x_min":104,"x_max":738,"o":"m 353 -14 q 171 64 238 -14 q 104 258 104 142 l 104 653 q 123 697 104 679 q 168 715 142 715 q 213 697 194 715 q 231 653 231 679 l 231 272 q 383 103 231 103 q 611 236 504 103 l 611 653 q 630 697 611 679 q 675 715 649 715 q 719 697 701 715 q 738 653 738 679 l 738 57 q 719 12 738 31 q 675 -7 701 -7 q 630 12 649 -7 q 611 57 611 31 l 611 114 q 353 -14 494 -14 m 254 919 q 265 930 254 919 q 304 940 275 940 q 354 919 333 940 q 375 869 375 899 q 354 819 375 840 q 304 799 333 799 q 254 819 275 799 q 233 869 233 840 q 254 919 233 899 m 489 919 q 499 930 489 919 q 539 940 510 940 q 589 919 568 940 q 610 869 610 899 q 589 819 610 840 q 539 799 568 799 q 489 819 510 799 q 468 869 468 840 q 489 919 468 899 z "},"ý":{"ha":740,"x_min":33,"x_max":707,"o":"m 707 651 q 703 628 707 639 l 324 -283 q 265 -326 304 -326 q 223 -308 240 -326 q 206 -265 206 -290 q 210 -243 206 -253 l 300 -11 l 39 625 q 33 651 33 639 q 51 697 33 678 q 96 715 69 715 q 154 676 138 715 l 368 146 l 586 674 q 644 715 604 715 q 689 697 671 715 q 707 651 707 678 m 438 1003 q 475 989 461 1003 q 489 951 489 975 q 475 917 489 932 l 379 803 q 349 788 367 788 q 322 798 332 788 q 311 825 311 808 q 321 851 311 836 l 392 976 q 438 1003 406 1003 z "},"þ":{"ha":876,"x_min":110,"x_max":810,"o":"m 474 722 q 709 622 608 722 q 810 354 810 522 q 709 86 810 186 q 474 -14 608 -14 q 236 92 338 -14 l 236 -262 q 218 -308 236 -289 q 172 -326 200 -326 q 128 -308 146 -326 q 110 -262 110 -289 l 110 957 q 128 1002 110 983 q 172 1021 146 1021 q 218 1002 200 1021 q 236 957 236 983 l 236 617 q 474 722 338 722 m 456 104 q 621 169 558 104 q 683 354 683 235 q 621 539 683 474 q 456 604 558 604 q 236 500 331 604 l 236 208 q 456 104 331 104 z "},"ÿ":{"ha":740,"x_min":33,"x_max":707,"o":"m 707 651 q 703 628 707 639 l 324 -283 q 265 -326 304 -326 q 223 -308 240 -326 q 206 -265 206 -290 q 210 -243 206 -253 l 300 -11 l 39 625 q 33 651 33 639 q 51 697 33 678 q 96 715 69 715 q 154 676 138 715 l 368 146 l 586 674 q 644 715 604 715 q 689 697 671 715 q 707 651 707 678 m 201 919 q 212 930 201 919 q 251 940 222 940 q 301 919 281 940 q 322 869 322 899 q 301 819 322 840 q 251 799 281 799 q 201 819 222 799 q 181 869 181 840 q 201 919 181 899 m 436 919 q 447 930 436 919 q 486 940 457 940 q 536 919 515 940 q 557 869 557 899 q 536 819 557 840 q 486 799 515 799 q 436 819 457 799 q 415 869 415 840 q 436 919 415 899 z "},"ſ":{"ha":399,"x_min":26,"x_max":524,"o":"m 403 907 q 317 881 346 907 q 289 785 289 854 l 289 56 q 270 11 289 29 q 225 -7 251 -7 q 181 11 199 -7 q 163 56 163 29 l 163 600 l 81 600 q 42 615 58 600 q 26 654 26 631 q 42 693 26 678 q 81 708 58 708 l 163 708 l 163 789 q 224 969 163 910 q 371 1028 286 1028 q 492 1000 436 1028 q 524 951 524 983 q 508 915 524 931 q 472 899 493 899 q 439 903 461 899 q 403 907 417 907 z "},"ƒ":{"ha":560,"x_min":-74,"x_max":617,"o":"m 585 1018 q 617 968 617 1003 q 601 928 617 944 q 561 913 585 913 q 532 917 556 913 q 490 921 508 921 q 401 894 433 921 q 360 799 369 868 l 331 593 l 493 593 q 524 580 511 593 q 536 550 536 567 q 524 519 536 532 q 493 507 511 507 l 319 507 l 250 17 q 198 -120 239 -65 q 110 -196 157 -175 q 8 -217 63 -217 l -17 -217 q -57 -200 -40 -217 q -74 -160 -74 -183 q -57 -119 -74 -136 q -17 -101 -40 -101 l -7 -101 q 82 -75 50 -101 q 124 21 114 -49 l 192 507 l 83 507 q 53 519 65 507 q 40 550 40 532 q 53 581 40 568 q 83 593 65 593 l 204 593 l 233 803 q 285 940 244 885 q 374 1015 326 994 q 476 1036 422 1036 q 585 1018 547 1036 z "},"Ǽ":{"ha":1444,"x_min":3,"x_max":1372,"o":"m 1313 118 q 1355 101 1338 118 q 1372 58 1372 83 q 1355 17 1372 33 q 1313 0 1338 0 l 756 0 q 711 18 729 0 q 693 63 693 36 l 693 249 l 265 249 l 124 29 q 67 -7 100 -7 q 22 11 40 -7 q 3 56 3 29 q 17 94 3 74 l 571 935 q 635 969 594 969 l 1313 969 q 1355 952 1338 969 q 1372 910 1372 935 q 1355 868 1372 885 q 1313 851 1338 851 l 819 851 l 819 544 l 1263 544 q 1305 527 1288 544 q 1322 485 1322 510 q 1305 443 1322 460 q 1263 426 1288 426 l 819 426 l 819 118 l 1313 118 m 693 364 l 693 851 l 658 851 l 340 364 l 693 364 m 801 1242 q 839 1228 825 1242 q 853 1190 853 1214 q 839 1156 853 1171 l 743 1042 q 713 1026 731 1026 q 685 1037 696 1026 q 675 1064 675 1047 q 685 1090 675 1076 l 756 1215 q 801 1242 769 1242 z "},"ǽ":{"ha":1256,"x_min":51,"x_max":1196,"o":"m 1196 374 q 1179 332 1196 350 q 1135 314 1163 314 l 657 314 q 903 104 681 104 q 1090 147 1007 104 q 1115 153 1101 153 q 1154 138 1138 153 q 1171 99 1171 122 q 1135 47 1171 68 q 892 -14 1028 -14 q 610 107 703 -14 q 324 -14 531 -14 q 130 43 208 -14 q 51 194 51 100 q 133 356 51 296 q 371 415 214 415 l 539 415 l 539 431 q 494 563 539 522 q 353 603 449 603 q 168 569 271 603 q 150 567 157 567 q 114 582 129 567 q 99 619 99 597 q 135 672 99 657 q 375 722 253 722 q 613 606 542 722 q 864 722 700 722 q 1106 624 1017 722 q 1196 374 1196 526 m 539 235 l 539 314 l 388 314 q 178 208 178 314 q 223 129 178 161 q 349 97 268 97 q 483 128 428 97 q 539 235 539 158 m 657 415 l 1071 415 q 1003 565 1065 515 q 864 615 940 615 q 725 565 788 615 q 657 415 663 515 m 685 1003 q 722 989 708 1003 q 736 951 736 975 q 722 917 736 932 l 626 803 q 596 788 614 788 q 569 798 579 788 q 558 825 558 808 q 568 851 558 836 l 639 976 q 685 1003 653 1003 z "},"Ǿ":{"ha":1126,"x_min":76,"x_max":1051,"o":"m 564 983 q 825 915 711 983 l 881 996 q 910 1010 890 1010 q 935 1000 925 1010 q 944 976 944 990 q 936 953 944 965 l 882 875 q 1051 485 1044 738 q 915 125 1047 264 q 564 -14 783 -14 q 304 51 417 -14 l 249 -28 q 219 -42 239 -42 q 194 -32 204 -42 q 185 -8 185 -22 q 193 15 185 3 l 247 92 q 76 485 81 231 q 213 844 81 706 q 564 983 344 983 m 203 485 q 318 193 203 300 l 754 817 q 564 865 671 865 q 299 758 396 865 q 203 485 203 650 m 564 104 q 828 212 731 104 q 925 485 925 319 q 811 775 925 668 l 374 151 q 564 104 456 104 m 629 1242 q 667 1228 653 1242 q 681 1190 681 1214 q 667 1156 681 1171 l 571 1042 q 540 1026 558 1026 q 513 1037 524 1026 q 503 1064 503 1047 q 513 1090 503 1076 l 583 1215 q 629 1242 597 1242 z "},"ǿ":{"ha":844,"x_min":67,"x_max":778,"o":"m 422 722 q 606 678 521 722 l 646 735 q 675 749 656 749 q 700 739 690 749 q 710 715 710 729 q 701 692 710 704 l 663 636 q 778 354 778 536 q 680 88 778 189 q 422 -14 582 -14 q 238 31 318 -14 l 196 -29 q 167 -43 186 -43 q 142 -33 151 -43 q 132 -10 132 -24 q 140 14 132 1 l 181 71 q 67 354 67 174 q 164 621 67 519 q 422 722 261 722 m 193 356 q 253 174 193 240 l 536 578 q 422 607 482 607 q 262 544 331 607 q 193 356 193 482 m 422 101 q 583 165 514 101 q 651 356 651 228 q 592 535 651 465 l 308 131 q 422 101 358 101 m 490 1003 q 528 989 514 1003 q 542 951 542 975 q 528 917 542 932 l 432 803 q 401 788 419 788 q 374 798 385 788 q 364 825 364 808 q 374 851 364 836 l 444 976 q 490 1003 458 1003 z "},"Ș":{"ha":857,"x_min":71,"x_max":796,"o":"m 442 -65 q 490 -86 469 -65 q 511 -136 511 -107 l 511 -143 l 511 -208 q 408 -390 511 -329 q 388 -397 401 -397 q 362 -386 372 -397 q 351 -360 351 -375 q 371 -328 351 -340 q 433 -212 433 -292 l 429 -212 q 379 -192 400 -212 q 358 -143 358 -172 l 358 -136 q 379 -86 358 -107 q 429 -65 400 -65 l 442 -65 m 207 708 q 251 617 207 653 q 360 566 294 581 q 501 530 425 551 q 643 483 578 508 q 752 401 708 458 q 796 257 796 343 q 698 62 796 138 q 440 -14 600 -14 q 110 53 264 -14 q 82 76 93 60 q 71 110 71 92 q 87 151 71 133 q 128 168 103 168 q 154 163 142 168 q 428 106 282 106 q 671 265 671 106 q 638 336 671 307 q 553 382 606 365 q 438 414 501 399 q 313 450 375 429 q 198 499 250 471 q 113 578 146 528 q 81 699 81 629 q 176 901 81 819 q 440 983 271 983 q 717 938 593 983 q 756 882 756 924 q 740 842 756 860 q 700 824 725 824 q 678 829 692 824 q 454 867 569 867 q 276 825 344 867 q 207 708 207 783 z "},"ș":{"ha":667,"x_min":67,"x_max":611,"o":"m 347 -65 q 396 -86 375 -65 q 417 -136 417 -107 l 417 -143 l 417 -208 q 314 -390 417 -329 q 293 -397 307 -397 q 267 -386 278 -397 q 257 -360 257 -375 q 276 -328 257 -340 q 339 -212 339 -292 l 335 -212 q 285 -192 306 -212 q 264 -143 264 -172 l 264 -136 q 285 -86 264 -107 q 335 -65 306 -65 l 347 -65 m 193 510 q 236 449 193 471 q 341 413 279 426 q 464 381 403 400 q 568 314 525 361 q 611 192 611 267 q 541 44 611 103 q 343 -14 471 -14 q 90 49 204 -14 q 67 94 67 65 q 82 133 67 117 q 121 150 97 150 q 146 144 133 150 q 335 103 240 103 q 489 201 489 103 q 446 253 489 233 q 342 288 403 274 q 219 321 281 301 q 115 386 158 340 q 72 503 72 432 q 142 661 72 600 q 343 722 213 722 q 544 688 450 722 q 585 635 585 675 q 569 596 585 613 q 529 579 553 579 q 511 582 522 579 q 353 607 431 607 q 235 580 278 607 q 193 510 193 553 z "},"Ț":{"ha":846,"x_min":18,"x_max":828,"o":"m 429 -65 q 478 -86 457 -65 q 499 -136 499 -107 l 499 -143 l 499 -208 q 396 -390 499 -329 q 375 -397 389 -397 q 349 -386 360 -397 q 339 -360 339 -375 q 358 -328 339 -340 q 421 -212 421 -292 l 417 -212 q 367 -192 388 -212 q 346 -143 346 -172 l 346 -136 q 367 -86 346 -107 q 417 -65 388 -65 l 429 -65 m 768 969 q 810 952 793 969 q 828 910 828 935 q 810 868 828 885 q 768 851 793 851 l 486 851 l 486 56 q 467 11 486 29 q 422 -7 449 -7 q 378 11 396 -7 q 360 56 360 29 l 360 851 l 76 851 q 35 868 51 851 q 18 910 18 885 q 35 952 18 935 q 76 969 51 969 l 768 969 z "},"ț":{"ha":532,"x_min":29,"x_max":504,"o":"m 272 -65 q 321 -86 300 -65 q 342 -136 342 -107 l 342 -143 l 342 -208 q 239 -390 342 -329 q 218 -397 232 -397 q 192 -386 203 -397 q 182 -360 182 -375 q 201 -328 182 -340 q 264 -212 264 -292 l 260 -212 q 210 -192 231 -212 q 189 -143 189 -172 l 189 -136 q 210 -86 189 -107 q 260 -65 231 -65 l 272 -65 m 454 110 q 489 95 474 110 q 504 60 504 81 q 472 11 504 28 q 357 -14 418 -14 q 154 169 154 -14 l 154 600 l 56 600 q 29 626 29 600 q 42 650 29 639 l 231 835 q 254 847 243 847 q 273 839 265 847 q 281 819 281 831 l 281 708 l 438 708 q 476 693 461 708 q 492 654 492 678 q 476 615 492 631 q 438 600 461 600 l 281 600 l 281 181 q 289 133 281 151 q 313 108 297 115 q 341 99 329 101 q 371 97 353 97 q 420 103 396 97 q 454 110 444 110 z "},"ȷ":{"ha":357,"x_min":-64,"x_max":242,"o":"m 178 714 q 224 696 206 714 q 242 650 242 678 l 242 -143 q 198 -281 242 -229 q 60 -333 154 -333 q -28 -321 10 -333 q -64 -271 -64 -310 q -49 -234 -64 -250 q -11 -218 -33 -218 q 8 -220 -6 -218 q 31 -222 22 -222 q 94 -207 74 -222 q 115 -140 115 -192 l 115 650 q 133 695 115 676 q 178 714 151 714 z "},"ˆ":{"ha":568,"x_min":94,"x_max":469,"o":"m 469 828 q 458 799 471 813 q 428 786 446 786 q 403 796 413 786 l 282 899 l 161 796 q 136 786 151 786 q 106 799 118 786 q 94 828 93 813 q 106 854 94 843 l 200 951 q 256 979 225 979 l 308 979 q 364 951 339 979 l 458 854 q 469 828 469 843 z "},"ˇ":{"ha":543,"x_min":94,"x_max":469,"o":"m 469 938 q 458 911 469 922 l 364 814 q 308 786 339 786 l 256 786 q 200 814 225 786 l 106 911 q 94 938 94 922 q 106 966 93 953 q 136 979 118 979 q 161 969 151 979 l 282 867 l 403 969 q 428 979 413 979 q 458 966 446 979 q 469 938 471 953 z "},"˘":{"ha":535,"x_min":68,"x_max":465,"o":"m 383 949 q 422 975 396 975 q 453 963 442 975 q 465 932 465 950 q 461 913 465 921 q 385 830 438 860 q 267 800 333 800 q 148 830 200 800 q 72 913 96 860 q 68 932 68 921 q 80 963 68 950 q 111 975 92 975 q 150 949 138 975 q 267 881 182 881 q 383 949 351 881 z "},"˙":{"ha":317,"x_min":88,"x_max":229,"o":"m 108 919 q 119 930 108 919 q 158 940 129 940 q 208 919 188 940 q 229 869 229 899 q 208 819 229 840 q 158 799 188 799 q 108 819 129 799 q 88 869 88 840 q 108 919 88 899 z "},"˚":{"ha":375,"x_min":60,"x_max":321,"o":"m 98 988 q 117 1007 98 988 q 190 1026 136 1026 q 283 988 244 1026 q 321 896 321 950 q 283 803 321 842 q 190 765 244 765 q 98 803 136 765 q 60 896 60 842 q 98 988 60 950 m 142 848 q 152 838 142 848 q 190 828 163 828 q 238 848 218 828 q 258 896 258 868 q 238 944 258 924 q 190 964 218 964 q 142 944 163 964 q 122 896 122 924 q 142 848 122 868 z "},"˛":{"ha":488,"x_min":96,"x_max":360,"o":"m 329 -193 q 360 -224 360 -193 q 344 -249 360 -237 q 225 -282 294 -282 q 134 -250 172 -282 q 96 -165 96 -218 q 244 0 96 -61 l 353 0 q 242 -58 289 -24 q 197 -139 196 -93 q 268 -204 197 -204 q 317 -196 289 -204 q 329 -193 325 -193 z "},"˜":{"ha":600,"x_min":76,"x_max":525,"o":"m 525 928 q 492 838 525 879 q 408 796 458 796 q 298 829 367 796 q 194 863 229 863 q 140 818 158 863 q 108 793 132 793 q 86 802 96 793 q 76 825 76 811 q 110 914 76 871 q 193 957 143 957 q 301 924 233 957 q 407 892 369 892 q 458 929 444 892 q 493 958 469 958 q 525 928 522 958 z "},"˝":{"ha":554,"x_min":67,"x_max":458,"o":"m 193 1003 q 231 989 217 1003 q 244 951 244 975 q 231 917 244 932 l 135 803 q 104 788 122 788 q 77 798 88 788 q 67 825 67 808 q 76 851 67 836 l 147 976 q 193 1003 161 1003 m 407 1003 q 444 989 431 1003 q 458 951 458 975 q 444 917 458 932 l 349 803 q 318 788 336 788 q 291 798 301 788 q 281 825 281 808 q 290 851 281 836 l 361 976 q 407 1003 375 1003 z "},"Ω":{"ha":1097,"x_min":75,"x_max":1022,"o":"m 795 751 q 749 804 795 751 q 549 857 703 857 q 302 751 394 857 q 210 497 210 646 q 419 119 210 240 q 451 64 451 100 q 432 19 451 38 q 386 0 413 0 l 129 0 q 90 15 106 0 q 75 54 75 31 q 90 93 75 78 q 129 108 106 108 l 269 108 q 96 513 96 251 q 149 734 96 628 q 308 912 201 840 q 549 983 414 983 q 790 912 683 983 q 949 734 896 840 q 1001 513 1001 628 q 828 108 1001 251 l 968 108 q 1007 93 992 108 q 1022 54 1022 78 q 1007 15 1022 31 q 968 0 992 0 l 711 0 q 665 19 685 0 q 646 64 646 38 q 678 119 646 100 q 888 497 888 240 q 795 751 888 646 z "},"π":{"ha":881,"x_min":22,"x_max":856,"o":"m 800 708 q 839 692 822 708 q 856 653 856 675 q 840 615 856 631 q 800 599 824 599 l 717 599 l 717 53 q 699 10 717 28 q 657 -7 682 -7 q 615 10 632 -7 q 597 53 597 28 l 597 599 l 353 599 q 269 38 344 304 q 248 6 264 18 q 211 -7 232 -7 q 168 10 186 -7 q 150 53 150 28 q 157 82 150 65 q 204 256 188 161 q 225 417 221 350 q 233 599 229 485 l 203 599 q 97 586 139 599 q 74 581 81 581 q 38 596 54 581 q 22 631 22 611 q 51 676 22 661 q 203 708 115 708 l 800 708 z "},"–":{"ha":950,"x_min":96,"x_max":854,"o":"m 797 446 q 838 429 821 446 q 854 389 854 413 q 838 349 854 365 q 797 333 821 333 l 151 333 q 112 349 128 333 q 96 389 96 365 q 112 429 96 413 q 151 446 128 446 l 797 446 z "},"—":{"ha":1238,"x_min":96,"x_max":1142,"o":"m 1085 446 q 1125 429 1108 446 q 1142 389 1142 413 q 1125 349 1142 365 q 1085 333 1108 333 l 151 333 q 112 349 128 333 q 96 389 96 365 q 112 429 96 413 q 151 446 128 446 l 1085 446 z "},"‘":{"ha":354,"x_min":92,"x_max":269,"o":"m 183 663 l 169 663 q 115 685 138 663 q 92 740 92 708 l 92 749 l 92 822 q 206 1025 92 956 q 229 1032 217 1032 q 258 1019 246 1032 q 269 990 269 1007 q 249 956 269 968 q 196 907 214 935 q 178 826 178 879 l 183 826 q 238 803 215 826 q 261 749 261 781 l 261 740 q 238 685 261 708 q 183 663 215 663 z "},"’":{"ha":331,"x_min":88,"x_max":265,"o":"m 188 1032 q 242 1009 219 1032 q 265 954 265 986 l 265 946 l 265 872 q 151 669 265 739 q 128 663 142 663 q 99 675 111 663 q 88 704 88 688 q 108 739 88 726 q 161 788 143 760 q 179 868 179 815 l 174 868 q 119 891 142 868 q 96 946 96 914 l 96 954 q 119 1009 96 986 q 174 1032 142 1032 l 188 1032 z "},"‚":{"ha":361,"x_min":88,"x_max":265,"o":"m 188 160 q 242 137 219 160 q 265 82 265 114 l 265 74 l 265 0 q 151 -203 265 -133 q 128 -210 142 -210 q 99 -197 111 -210 q 88 -168 88 -185 q 108 -133 88 -146 q 161 -85 143 -112 q 179 -4 179 -57 l 174 -4 q 119 19 142 -4 q 96 74 96 42 l 96 82 q 119 137 96 114 q 174 160 142 160 l 188 160 z "},"“":{"ha":607,"x_min":92,"x_max":521,"o":"m 435 663 l 421 663 q 366 685 389 663 q 343 740 343 708 l 343 749 l 343 822 q 457 1025 343 956 q 481 1032 468 1032 q 509 1019 497 1032 q 521 990 521 1007 q 500 956 521 968 q 447 907 465 935 q 429 826 429 879 l 435 826 q 490 803 467 826 q 513 749 513 781 l 513 740 q 490 685 513 708 q 435 663 467 663 m 183 663 l 169 663 q 115 685 138 663 q 92 740 92 708 l 92 749 l 92 822 q 206 1025 92 956 q 229 1032 217 1032 q 258 1019 246 1032 q 269 990 269 1007 q 249 956 269 968 q 196 907 214 935 q 178 826 178 879 l 183 826 q 238 803 215 826 q 261 749 261 781 l 261 740 q 238 685 261 708 q 183 663 215 663 z "},"”":{"ha":583,"x_min":88,"x_max":517,"o":"m 188 1032 q 242 1009 219 1032 q 265 954 265 986 l 265 946 l 265 872 q 151 669 265 739 q 128 663 142 663 q 99 675 111 663 q 88 704 88 688 q 108 739 88 726 q 161 788 143 760 q 179 868 179 815 l 174 868 q 119 891 142 868 q 96 946 96 914 l 96 954 q 119 1009 96 986 q 174 1032 142 1032 l 188 1032 m 439 1032 q 494 1009 471 1032 q 517 954 517 986 l 517 946 l 517 872 q 403 669 517 739 q 379 663 392 663 q 351 675 363 663 q 339 704 339 688 q 360 739 339 726 q 413 788 394 760 q 431 868 431 815 l 425 868 q 370 891 393 868 q 347 946 347 914 l 347 954 q 370 1009 347 986 q 425 1032 393 1032 l 439 1032 z "},"„":{"ha":614,"x_min":88,"x_max":517,"o":"m 188 160 q 242 137 219 160 q 265 82 265 114 l 265 74 l 265 0 q 151 -203 265 -133 q 128 -210 142 -210 q 99 -197 111 -210 q 88 -168 88 -185 q 108 -133 88 -146 q 161 -85 143 -112 q 179 -4 179 -57 l 174 -4 q 119 19 142 -4 q 96 74 96 42 l 96 82 q 119 137 96 114 q 174 160 142 160 l 188 160 m 439 160 q 494 137 471 160 q 517 82 517 114 l 517 74 l 517 0 q 403 -203 517 -133 q 379 -210 392 -210 q 351 -197 363 -210 q 339 -168 339 -185 q 360 -133 339 -146 q 413 -85 394 -112 q 431 -4 431 -57 l 425 -4 q 370 19 393 -4 q 347 74 347 42 l 347 82 q 370 137 347 114 q 425 160 393 160 l 439 160 z "},"†":{"ha":701,"x_min":49,"x_max":654,"o":"m 579 674 q 654 631 654 674 q 579 588 654 588 l 525 588 q 407 601 493 588 q 388 596 396 603 q 383 578 381 589 q 396 460 396 500 l 381 -54 l 381 -69 q 378 -90 379 -83 q 375 -108 378 -97 q 366 -124 372 -119 q 351 -129 360 -129 q 337 -124 343 -129 q 328 -108 331 -119 q 324 -90 325 -97 q 322 -69 324 -83 l 322 -54 l 307 460 l 319 578 q 315 596 322 589 q 296 601 307 603 q 178 588 210 588 l 124 588 q 49 631 49 588 q 124 674 49 674 l 178 674 q 296 661 218 674 q 315 666 307 658 q 319 685 322 674 q 306 803 306 771 l 306 860 q 317 910 306 886 q 351 935 328 935 q 386 910 375 935 q 397 860 397 886 l 397 803 q 383 685 397 771 q 388 666 381 674 q 407 661 396 658 q 525 674 485 674 l 579 674 z "},"‡":{"ha":738,"x_min":67,"x_max":672,"o":"m 597 217 q 672 174 672 217 q 597 131 672 131 l 543 131 q 425 143 503 131 q 407 138 414 144 q 401 119 400 131 q 415 1 415 33 l 415 -56 q 404 -106 415 -82 q 369 -131 393 -131 q 335 -106 346 -131 q 324 -56 324 -82 l 324 1 q 338 119 324 33 q 332 138 339 131 q 314 143 325 144 q 196 131 236 131 l 142 131 q 67 174 67 131 q 142 217 67 217 l 196 217 q 314 203 228 217 q 332 208 325 200 q 338 226 339 215 q 325 403 325 363 l 338 579 q 332 598 339 590 q 314 603 325 606 q 196 589 228 589 l 142 589 q 67 632 67 589 q 142 675 67 675 l 196 675 q 314 663 236 675 q 332 668 325 661 q 338 686 339 675 q 324 804 324 772 l 324 861 q 335 912 324 888 q 369 936 346 936 q 404 912 393 936 q 415 861 415 888 l 415 804 q 401 686 415 772 q 407 668 400 675 q 425 663 414 661 q 543 675 503 675 l 597 675 q 672 632 672 675 q 597 589 672 589 l 543 589 q 425 603 511 589 q 407 598 414 606 q 401 579 400 590 q 414 403 414 443 l 401 226 q 407 208 400 215 q 425 203 414 200 q 543 217 511 217 l 597 217 z "},"•":{"ha":524,"x_min":78,"x_max":446,"o":"m 132 676 q 159 703 132 676 q 263 731 186 731 q 392 676 339 731 q 446 546 446 622 q 392 415 446 469 q 263 361 339 361 q 132 415 186 361 q 78 546 78 469 q 132 676 78 622 z "},"…":{"ha":1344,"x_min":96,"x_max":1247,"o":"m 188 160 q 242 137 219 160 q 265 82 265 114 l 265 74 q 242 19 265 42 q 188 -4 219 -4 l 174 -4 q 119 19 142 -4 q 96 74 96 42 l 96 82 q 119 137 96 114 q 174 160 142 160 l 188 160 m 681 160 q 735 137 713 160 q 758 82 758 114 l 758 74 q 735 19 758 42 q 681 -4 713 -4 l 667 -4 q 612 19 635 -4 q 589 74 589 42 l 589 82 q 612 137 589 114 q 667 160 635 160 l 681 160 m 1169 160 q 1224 137 1201 160 q 1247 82 1247 114 l 1247 74 q 1224 19 1247 42 q 1169 -4 1201 -4 l 1156 -4 q 1101 19 1124 -4 q 1078 74 1078 42 l 1078 82 q 1101 137 1078 114 q 1156 160 1124 160 l 1169 160 z "},"‹":{"ha":524,"x_min":75,"x_max":421,"o":"m 421 82 q 406 43 421 58 q 367 28 390 28 q 328 43 340 28 l 100 294 q 75 354 75 322 q 100 414 75 386 l 328 665 q 367 681 340 681 q 406 665 390 681 q 421 626 421 650 q 408 590 421 606 l 186 354 l 408 118 q 421 82 421 104 z "},"›":{"ha":524,"x_min":103,"x_max":449,"o":"m 103 82 q 115 118 103 104 l 338 354 l 115 590 q 103 626 103 606 q 118 665 103 650 q 157 681 133 681 q 196 665 183 681 l 424 414 q 449 354 449 386 q 424 294 449 322 l 196 43 q 157 28 183 28 q 118 43 133 28 q 103 82 103 58 z "},"⁄":{"ha":278,"x_min":-194,"x_max":474,"o":"m -147 -33 q -181 -20 -167 -33 q -194 14 -194 -7 q -187 39 -194 25 l 388 986 q 426 1006 399 1006 q 460 992 446 1006 q 474 958 474 979 q 467 933 474 947 l -108 -14 q -147 -33 -119 -33 z "},"€":{"ha":947,"x_min":58,"x_max":885,"o":"m 828 136 q 868 119 851 136 q 885 81 885 103 q 853 31 885 47 q 650 -14 761 -14 q 372 78 489 -14 q 207 318 254 169 l 108 318 q 73 333 88 318 q 58 368 58 347 q 73 404 58 389 q 108 419 88 419 l 185 419 q 179 485 179 461 q 185 550 179 506 l 108 550 q 73 565 88 550 q 58 600 58 579 q 73 635 58 621 q 108 650 88 650 l 207 650 q 372 892 254 800 q 650 983 489 983 q 853 939 761 983 q 885 889 885 922 q 868 850 885 867 q 828 833 851 833 q 801 840 819 833 q 650 864 738 864 q 463 806 547 864 q 339 650 379 749 l 738 650 q 773 635 758 650 q 788 600 788 621 q 773 565 788 581 q 738 550 758 550 l 310 550 q 306 485 306 519 q 310 419 306 450 l 668 419 q 704 404 689 419 q 719 368 719 389 q 705 332 719 346 q 668 318 690 318 l 339 318 q 463 163 379 221 q 650 106 547 106 q 801 129 738 106 q 828 136 819 136 z "},"™":{"ha":1324,"x_min":79,"x_max":1197,"o":"m 739 936 l 900 538 l 1061 936 q 1115 972 1075 972 l 1139 972 q 1181 955 1164 972 q 1197 914 1197 938 l 1197 485 q 1185 453 1197 467 q 1153 440 1172 440 q 1121 453 1133 440 q 1108 485 1108 467 l 1108 849 l 954 475 q 900 440 940 440 q 846 475 860 440 l 692 849 l 692 485 q 679 453 692 467 q 647 440 667 440 q 615 453 628 440 q 603 485 603 467 l 603 914 q 619 955 603 938 q 661 972 636 972 l 685 972 q 739 936 725 972 m 486 969 q 515 958 503 969 q 526 929 526 946 q 515 901 526 913 q 486 889 503 889 l 346 889 l 346 483 q 333 453 346 465 q 301 440 321 440 q 271 452 283 440 q 258 483 258 464 l 258 889 l 119 889 q 91 901 103 889 q 79 929 79 913 q 91 958 79 946 q 119 969 103 969 l 486 969 z "},"Ω":{"ha":1097,"x_min":75,"x_max":1022,"o":"m 795 751 q 749 804 795 751 q 549 857 703 857 q 302 751 394 857 q 210 497 210 646 q 419 119 210 240 q 451 64 451 100 q 432 19 451 38 q 386 0 413 0 l 129 0 q 90 15 106 0 q 75 54 75 31 q 90 93 75 78 q 129 108 106 108 l 269 108 q 96 513 96 251 q 149 734 96 628 q 308 912 201 840 q 549 983 414 983 q 790 912 683 983 q 949 734 896 840 q 1001 513 1001 628 q 828 108 1001 251 l 968 108 q 1007 93 992 108 q 1022 54 1022 78 q 1007 15 1022 31 q 968 0 992 0 l 711 0 q 665 19 685 0 q 646 64 646 38 q 678 119 646 100 q 888 497 888 240 q 795 751 888 646 z "},"∂":{"ha":951,"x_min":58,"x_max":864,"o":"m 492 1047 q 767 917 669 1047 q 864 601 864 786 q 742 154 864 322 q 393 -14 621 -14 q 238 14 306 -14 q 133 88 171 42 q 77 184 96 133 q 58 289 58 235 q 165 533 58 436 q 444 631 272 631 q 606 594 529 631 q 736 504 683 558 q 742 592 742 547 q 727 715 742 657 q 682 822 713 772 q 598 899 651 871 q 474 928 544 928 q 331 910 394 928 q 311 907 322 907 q 272 923 288 907 q 256 963 256 939 q 292 1014 256 1000 q 492 1047 381 1047 m 403 97 q 535 125 476 97 q 629 199 593 153 q 685 292 665 246 q 718 392 706 339 q 604 489 674 451 q 454 526 535 526 q 260 466 335 526 q 185 301 185 406 q 242 157 185 217 q 403 97 299 97 z "},"∆":{"ha":1001,"x_min":94,"x_max":908,"o":"m 599 897 l 897 147 q 908 97 908 119 q 878 28 908 56 q 806 0 849 0 l 197 0 q 124 28 154 0 q 94 97 94 56 q 106 147 94 119 l 404 897 q 501 969 432 969 q 599 897 571 969 m 203 99 l 800 99 l 501 847 l 203 99 z "},"∏":{"ha":1029,"x_min":50,"x_max":979,"o":"m 919 969 q 962 952 944 969 q 979 910 979 935 q 962 867 979 885 q 919 850 944 850 l 817 850 l 817 -100 q 799 -142 817 -125 q 757 -160 782 -160 q 715 -142 732 -160 q 697 -100 697 -125 l 697 850 l 332 850 l 332 -100 q 315 -142 332 -125 q 272 -160 297 -160 q 230 -142 247 -160 q 213 -100 213 -125 l 213 850 l 110 850 q 67 867 85 850 q 50 910 50 885 q 67 952 50 935 q 110 969 85 969 l 919 969 z "},"∑":{"ha":876,"x_min":57,"x_max":819,"o":"m 758 -143 l 144 -143 q 83 -117 108 -143 q 57 -54 57 -90 q 83 10 57 -21 l 461 414 l 83 818 q 57 882 57 849 q 83 944 57 918 q 144 971 108 971 l 758 971 q 801 953 783 971 q 819 910 819 935 q 801 867 819 885 q 758 850 783 850 l 213 850 l 561 482 q 588 414 588 453 q 561 346 588 375 l 213 -22 l 758 -22 q 801 -40 783 -22 q 819 -82 819 -57 q 801 -125 819 -107 q 758 -143 783 -143 z "},"−":{"ha":989,"x_min":101,"x_max":888,"o":"m 831 515 q 871 499 854 515 q 888 458 888 482 q 871 419 888 435 q 831 403 854 403 l 157 403 q 117 419 133 403 q 101 458 101 435 q 117 499 101 482 q 157 515 133 515 l 831 515 z "},"√":{"ha":861,"x_min":10,"x_max":871,"o":"m 833 969 q 860 958 849 969 q 871 932 871 947 q 860 906 871 917 q 833 896 849 896 l 710 896 l 439 47 q 415 13 433 26 q 375 0 397 0 l 369 0 q 304 51 324 0 l 146 483 l 68 453 q 50 449 56 449 q 22 461 33 449 q 10 490 10 474 q 43 529 10 515 l 157 575 q 181 581 171 581 q 231 540 215 581 l 369 147 l 625 914 q 690 969 643 969 l 833 969 z "},"∞":{"ha":1338,"x_min":90,"x_max":1247,"o":"m 979 635 q 1109 608 1054 635 q 1192 536 1164 581 q 1234 447 1221 492 q 1247 354 1247 401 q 1234 262 1247 307 q 1192 172 1221 217 q 1109 101 1164 128 q 979 74 1054 74 q 808 126 879 74 q 671 268 738 178 l 667 268 q 531 127 603 181 q 358 74 458 74 q 228 101 283 74 q 145 172 174 128 q 103 262 117 217 q 90 354 90 307 q 103 447 90 401 q 145 536 117 492 q 228 608 174 581 q 358 635 283 635 q 530 581 458 635 q 667 440 601 528 l 671 440 q 728 510 703 482 q 793 571 754 539 q 879 619 832 603 q 979 635 926 635 m 965 181 q 1092 232 1047 181 q 1136 354 1136 283 q 1092 476 1136 425 q 965 528 1047 528 q 893 514 928 528 q 835 485 858 500 q 785 440 813 471 q 749 397 758 410 q 718 354 739 385 q 760 299 747 315 q 807 248 772 283 q 881 197 842 213 q 965 181 919 181 m 372 181 q 458 197 418 181 q 531 247 497 214 q 579 300 564 281 q 619 354 594 319 q 579 408 596 388 q 530 462 563 429 q 458 511 497 494 q 372 528 418 528 q 246 476 290 528 q 201 354 201 425 q 246 232 201 283 q 372 181 290 181 z "},"∫":{"ha":515,"x_min":1,"x_max":514,"o":"m 467 1099 q 514 1049 514 1090 q 499 1014 514 1029 q 464 999 483 999 q 453 999 461 999 q 436 1000 444 1000 q 375 985 396 1000 q 350 921 354 969 l 285 -25 q 234 -155 279 -106 q 100 -204 189 -204 q 42 -199 78 -204 q 13 -181 24 -196 q 1 -149 1 -167 q 15 -113 1 -128 q 51 -99 29 -99 q 63 -99 54 -99 q 81 -100 72 -100 q 142 -85 121 -100 q 165 -22 163 -71 l 232 924 q 281 1054 236 1006 q 417 1103 326 1103 q 467 1099 444 1103 z "},"≈":{"ha":938,"x_min":115,"x_max":826,"o":"m 826 579 q 824 564 826 572 q 651 432 779 432 q 459 484 578 432 q 290 536 340 536 q 189 465 215 536 q 154 440 179 440 q 127 452 139 440 q 115 479 115 464 q 119 494 115 486 q 290 626 176 626 q 483 574 364 626 q 651 522 603 522 q 750 590 725 522 q 788 618 760 618 q 815 606 803 618 q 826 579 826 594 m 826 322 q 824 307 826 315 q 651 175 779 175 q 459 227 578 175 q 290 279 340 279 q 189 208 215 279 q 154 183 179 183 q 127 195 139 183 q 115 222 115 207 q 119 238 115 229 q 290 369 176 369 q 483 317 364 369 q 651 265 603 265 q 750 333 725 265 q 788 361 760 361 q 815 349 803 361 q 826 322 826 338 z "},"≠":{"ha":956,"x_min":82,"x_max":868,"o":"m 136 561 q 98 576 114 561 q 82 615 82 592 q 98 654 82 639 q 136 669 114 669 l 558 669 l 678 858 q 713 876 689 876 q 742 865 729 876 q 754 840 754 854 q 747 811 754 824 l 657 669 l 814 669 q 852 654 836 669 q 868 615 868 639 q 852 576 868 592 q 814 561 836 561 l 588 561 l 460 358 l 814 358 q 852 343 836 358 q 868 304 868 328 q 852 265 868 281 q 814 250 836 250 l 390 250 l 268 56 q 233 38 257 38 q 204 49 217 38 q 192 74 192 60 q 199 103 192 90 l 292 250 l 136 250 q 98 265 114 250 q 82 304 82 281 q 98 343 82 328 q 136 358 114 358 l 361 358 l 489 561 l 136 561 z "},"≤":{"ha":875,"x_min":81,"x_max":769,"o":"m 713 157 q 690 161 700 157 l 136 410 q 86 482 86 432 l 86 493 q 136 565 86 543 l 690 814 q 713 818 700 818 q 752 802 736 818 q 768 763 768 786 q 731 710 768 726 l 231 488 l 731 265 q 768 213 768 249 q 752 173 768 189 q 713 157 736 157 m 718 101 q 754 86 739 101 q 769 50 769 71 q 754 15 769 29 q 718 0 739 0 l 131 0 q 95 15 110 0 q 81 50 81 29 q 95 86 81 71 q 131 101 110 101 l 718 101 z "},"≥":{"ha":875,"x_min":106,"x_max":794,"o":"m 163 157 q 123 173 139 157 q 107 213 107 189 q 144 265 107 249 l 644 488 l 144 710 q 107 763 107 726 q 123 802 107 786 q 163 818 139 818 q 185 814 175 818 l 739 565 q 789 493 789 543 l 789 482 q 739 410 789 432 l 185 161 q 163 157 175 157 m 157 101 l 744 101 q 780 86 765 101 q 794 50 794 71 q 780 15 794 29 q 744 0 765 0 l 157 0 q 121 15 136 0 q 106 50 106 29 q 121 86 106 71 q 157 101 136 101 z "},"◊":{"ha":869,"x_min":56,"x_max":814,"o":"m 440 -146 l 429 -146 q 358 -107 381 -146 l 67 372 q 56 415 56 392 q 67 458 56 439 l 358 938 q 429 976 381 976 l 440 976 q 511 938 489 976 l 803 458 q 814 415 814 439 q 803 372 814 392 l 511 -107 q 440 -146 489 -146 m 435 -40 l 706 415 l 435 871 l 164 415 l 435 -40 z "},"ﬀ":{"ha":1075,"x_min":26,"x_max":1071,"o":"m 950 907 q 865 881 893 907 q 836 785 836 854 l 836 708 l 1010 708 q 1049 693 1033 708 q 1064 654 1064 678 q 1049 615 1064 631 q 1010 600 1033 600 l 836 600 l 836 56 q 817 11 836 29 q 772 -7 799 -7 q 728 11 746 -7 q 710 56 710 29 l 710 600 l 289 600 l 289 56 q 270 11 289 29 q 225 -7 251 -7 q 181 11 199 -7 q 163 56 163 29 l 163 600 l 81 600 q 42 615 58 600 q 26 654 26 631 q 42 693 26 678 q 81 708 58 708 l 163 708 l 163 789 q 224 969 163 910 q 371 1028 286 1028 q 492 1000 436 1028 q 524 951 524 983 q 508 915 524 931 q 472 899 493 899 q 439 903 461 899 q 403 907 417 907 q 317 881 346 907 q 289 785 289 854 l 289 708 l 710 708 l 710 789 q 772 969 710 910 q 918 1028 833 1028 q 1039 1000 983 1028 q 1071 951 1071 983 q 1056 915 1071 931 q 1019 899 1040 899 q 986 903 1008 899 q 950 907 964 907 z "},"ﬁ":{"ha":890,"x_min":26,"x_max":788,"o":"m 289 708 l 715 708 q 758 688 742 706 q 775 644 775 671 l 775 56 q 756 11 775 29 q 711 -7 738 -7 q 667 11 685 -7 q 649 56 649 29 l 649 600 l 289 600 l 289 56 q 270 11 289 29 q 225 -7 251 -7 q 181 11 199 -7 q 163 56 163 29 l 163 600 l 81 600 q 42 615 58 600 q 26 654 26 631 q 42 693 26 678 q 81 708 58 708 l 163 708 l 163 789 q 224 969 163 910 q 371 1028 286 1028 q 492 1000 436 1028 q 524 951 524 983 q 508 915 524 931 q 472 899 493 899 q 439 903 461 899 q 403 907 417 907 q 317 881 346 907 q 289 785 289 854 l 289 708 m 788 929 l 788 924 q 767 874 788 894 q 717 853 746 853 l 708 853 q 658 874 679 853 q 638 924 638 894 l 638 929 q 658 979 638 958 q 708 1000 679 1000 l 717 1000 q 767 979 746 1000 q 788 929 788 958 z "},"ﬂ":{"ha":894,"x_min":26,"x_max":774,"o":"m 403 907 q 317 881 346 907 q 289 785 289 854 l 289 708 l 463 708 q 501 693 486 708 q 517 654 517 678 q 501 615 517 631 q 463 600 486 600 l 289 600 l 289 56 q 270 11 289 29 q 225 -7 251 -7 q 181 11 199 -7 q 163 56 163 29 l 163 600 l 81 600 q 42 615 58 600 q 26 654 26 631 q 42 693 26 678 q 81 708 58 708 l 163 708 l 163 789 q 224 969 163 910 q 371 1028 286 1028 q 492 1000 436 1028 q 524 951 524 983 q 508 915 524 931 q 472 899 493 899 q 439 903 461 899 q 403 907 417 907 m 665 1002 q 674 1011 665 1002 q 710 1021 683 1021 q 755 1002 736 1021 q 774 957 774 983 l 774 56 q 755 11 774 29 q 710 -7 736 -7 q 665 11 683 -7 q 647 56 647 29 l 647 957 q 665 1002 647 983 z "},"ﬃ":{"ha":1438,"x_min":26,"x_max":1335,"o":"m 1258 708 q 1304 690 1286 708 q 1322 644 1322 672 l 1322 56 q 1303 11 1322 29 q 1258 -7 1285 -7 q 1214 11 1232 -7 q 1196 56 1196 29 l 1196 600 l 836 600 l 836 56 q 817 11 836 29 q 772 -7 799 -7 q 728 11 746 -7 q 710 56 710 29 l 710 600 l 289 600 l 289 56 q 270 11 289 29 q 225 -7 251 -7 q 181 11 199 -7 q 163 56 163 29 l 163 600 l 81 600 q 42 615 58 600 q 26 654 26 631 q 42 693 26 678 q 81 708 58 708 l 163 708 l 163 789 q 224 969 163 910 q 371 1028 286 1028 q 492 1000 436 1028 q 524 951 524 983 q 508 915 524 931 q 472 899 493 899 q 439 903 461 899 q 403 907 417 907 q 317 881 346 907 q 289 785 289 854 l 289 708 l 710 708 l 710 789 q 772 969 710 910 q 918 1028 833 1028 q 1039 1000 983 1028 q 1071 951 1071 983 q 1056 915 1071 931 q 1019 899 1040 899 q 986 903 1008 899 q 950 907 964 907 q 865 881 893 907 q 836 785 836 854 l 836 708 l 1258 708 m 1335 929 l 1335 924 q 1314 874 1335 894 q 1264 853 1293 853 l 1256 853 q 1206 874 1226 853 q 1185 924 1185 894 l 1185 929 q 1206 979 1185 958 q 1256 1000 1226 1000 l 1264 1000 q 1314 979 1293 1000 q 1335 929 1335 958 z "},"ﬄ":{"ha":1442,"x_min":26,"x_max":1321,"o":"m 1213 1002 q 1222 1011 1213 1002 q 1257 1021 1231 1021 q 1302 1002 1283 1021 q 1321 957 1321 983 l 1321 56 q 1302 11 1321 29 q 1257 -7 1283 -7 q 1213 11 1231 -7 q 1194 56 1194 29 l 1194 957 q 1213 1002 1194 983 m 950 907 q 865 881 893 907 q 836 785 836 854 l 836 708 l 1010 708 q 1049 693 1033 708 q 1064 654 1064 678 q 1049 615 1064 631 q 1010 600 1033 600 l 836 600 l 836 56 q 817 11 836 29 q 772 -7 799 -7 q 728 11 746 -7 q 710 56 710 29 l 710 600 l 289 600 l 289 56 q 270 11 289 29 q 225 -7 251 -7 q 181 11 199 -7 q 163 56 163 29 l 163 600 l 81 600 q 42 615 58 600 q 26 654 26 631 q 42 693 26 678 q 81 708 58 708 l 163 708 l 163 789 q 224 969 163 910 q 371 1028 286 1028 q 492 1000 436 1028 q 524 951 524 983 q 508 915 524 931 q 472 899 493 899 q 439 903 461 899 q 403 907 417 907 q 317 881 346 907 q 289 785 289 854 l 289 708 l 710 708 l 710 789 q 772 969 710 910 q 918 1028 833 1028 q 1039 1000 983 1028 q 1071 951 1071 983 q 1056 915 1071 931 q 1019 899 1040 899 q 986 903 1008 899 q 950 907 964 907 z "},"ﬆ":{"ha":1169,"x_min":67,"x_max":1142,"o":"m 1092 110 q 1126 95 1111 110 q 1142 60 1142 81 q 1110 11 1142 28 q 994 -14 1056 -14 q 792 169 792 -14 l 792 600 l 707 600 q 668 615 683 600 q 653 654 653 631 q 668 693 653 678 q 707 708 683 708 l 792 708 l 792 825 q 755 936 792 890 q 635 982 718 982 q 524 940 568 982 q 479 825 479 899 q 557 682 479 731 q 585 635 585 665 q 569 596 585 613 q 529 579 553 579 q 511 582 522 579 q 353 607 431 607 q 235 580 278 607 q 193 510 193 553 q 236 449 193 471 q 341 413 279 426 q 464 381 403 400 q 568 314 525 361 q 611 192 611 267 q 541 44 611 103 q 343 -14 471 -14 q 90 49 204 -14 q 67 94 67 65 q 82 133 67 117 q 121 150 97 150 q 146 144 133 150 q 335 103 240 103 q 489 201 489 103 q 446 253 489 233 q 342 288 403 274 q 219 321 281 301 q 115 386 158 340 q 72 503 72 432 q 142 661 72 600 q 343 722 213 722 q 449 713 390 722 q 413 835 413 764 q 480 1008 413 942 q 665 1075 547 1075 q 851 998 783 1075 q 918 811 918 921 l 918 708 l 1075 708 q 1113 693 1097 708 q 1129 654 1129 678 q 1113 615 1129 631 q 1075 600 1097 600 l 918 600 l 918 181 q 926 133 918 151 q 951 108 935 115 q 978 99 967 101 q 1008 97 990 97 q 1058 103 1033 97 q 1092 110 1082 110 z "}}}
